<svg version="1.1" id="Layer_1" xmlns="http://www.w3.org/2000/svg" xmlns:xlink="http://www.w3.org/1999/xlink" x="0px" y="0px"
	 width="100%" viewBox="0 0 4689 1910" enable-background="new 0 0 4689 1910" xml:space="preserve">
<path fill="#010101" opacity="0" stroke="none"
	d="
M4692.000000,1766.000000
	C4692.000000,1814.663696 4692.000000,1863.327393 4692.000000,1911.993408
	C3128.765137,1911.995605 1565.530273,1911.995605 2.147727,1911.995605
	C2.147727,1275.470703 2.147727,638.941467 2.147727,2.206073
	C1565.100342,2.206073 3128.200928,2.206073 4692.000000,2.206073
	C4692.000000,572.731934 4692.000000,1143.464233 4691.454590,1715.737061
	C4690.126953,1716.712036 4688.991699,1716.320557 4688.613770,1715.555176
	C4680.138672,1698.412598 4665.768555,1688.074341 4648.458496,1681.605957
	C4631.669434,1675.332397 4614.476074,1670.141602 4597.692383,1663.856079
	C4589.985840,1660.969971 4582.655273,1656.918213 4575.469238,1652.840576
	C4560.287598,1644.225952 4561.350098,1623.974121 4568.983887,1613.418823
	C4574.793945,1605.384766 4582.718262,1600.828735 4591.776367,1598.285034
	C4609.340820,1593.352417 4626.680176,1594.832886 4643.411133,1602.048828
	C4650.716797,1605.199707 4657.821289,1608.830933 4664.930176,1612.417725
	C4669.984375,1614.967529 4674.523926,1613.447266 4677.439941,1609.608276
	C4681.761230,1603.919189 4685.045898,1597.442139 4688.777832,1591.290894
	C4676.457520,1578.903687 4662.551758,1571.488892 4647.241699,1566.291260
	C4630.455078,1560.592407 4613.012207,1560.460815 4595.874512,1561.963989
	C4571.274414,1564.121948 4549.201660,1573.210205 4533.891602,1593.782593
	C4510.839844,1624.756592 4515.085449,1672.107422 4555.730469,1690.907104
	C4570.732910,1697.846069 4586.834473,1702.375732 4602.289062,1708.380005
	C4613.700684,1712.813599 4625.178223,1717.264526 4636.051270,1722.831421
	C4643.594238,1726.693359 4648.836914,1733.420288 4650.103516,1742.369141
	C4652.443359,1758.905518 4645.005859,1773.962280 4630.018066,1781.177124
	C4606.345703,1792.572510 4582.974609,1789.967163 4560.235352,1778.129761
	C4554.650879,1775.222778 4549.600098,1771.304443 4544.066406,1768.285645
	C4535.840820,1763.799072 4529.375488,1765.168579 4524.112305,1772.780396
	C4520.191895,1778.450195 4517.009277,1784.629639 4513.003906,1791.419800
	C4521.052734,1796.596313 4528.294434,1801.924561 4536.125977,1806.163208
	C4558.898926,1818.488037 4583.338867,1822.656494 4609.091797,1820.396484
	C4645.350586,1817.214722 4674.538086,1803.739502 4688.692383,1767.419800
	C4688.998047,1766.636108 4690.862793,1766.459717 4692.000000,1766.000000
M3984.809082,48.336815
	C3809.313721,48.336815 3633.818359,48.336815 3458.479980,48.336815
	C3456.473877,67.050583 3457.302979,1347.846558 3459.369873,1355.663330
	C3463.105713,1355.663330 3467.047607,1355.672241 3470.989502,1355.662109
	C3642.248779,1355.218628 3813.508301,1354.820679 3984.767090,1354.247192
	C4000.029785,1354.196045 4015.346436,1353.619873 4030.536621,1352.202026
	C4056.583496,1349.770752 4082.778320,1347.791382 4108.507324,1343.305908
	C4183.282715,1330.269165 4254.398926,1306.217773 4321.199219,1269.750854
	C4382.193848,1236.452881 4436.321289,1194.480225 4482.667480,1142.694336
	C4539.288574,1079.427002 4580.425781,1007.064514 4607.844238,926.836914
	C4632.223633,855.503296 4642.358887,781.761963 4643.442871,706.705811
	C4643.768555,684.177368 4641.363770,661.614868 4640.375488,639.060730
	C4639.210938,612.492371 4634.929199,586.335999 4629.937012,560.297546
	C4617.139648,493.556061 4594.184570,430.418915 4561.160645,371.061218
	C4528.721191,312.754364 4487.621094,261.276154 4438.060059,216.478455
	C4396.071289,178.525299 4349.406250,147.528702 4298.928711,122.325851
	C4243.101562,94.451920 4184.424316,74.649979 4123.086426,62.804157
	C4078.038574,54.104317 4032.547363,49.846375 3984.809082,48.336815
M2193.460938,36.336227
	C2189.187012,36.780346 2184.895508,37.099159 2180.641846,37.689011
	C2154.068115,41.373936 2127.278076,43.964275 2100.979736,49.077049
	C2039.675049,60.995461 1981.327515,81.812271 1925.689209,110.294525
	C1856.894165,145.511978 1796.213989,191.176773 1744.554565,248.822174
	C1695.219360,303.874054 1657.293701,365.881042 1629.492065,434.272461
	C1611.796875,477.802155 1598.380615,522.600525 1590.604980,568.893005
	C1586.056885,595.970703 1582.237061,623.332336 1580.692261,650.713135
	C1578.615723,687.517883 1577.821655,724.497803 1581.733521,761.303772
	C1584.358765,786.004150 1586.509155,810.836182 1590.858398,835.255554
	C1600.677124,890.387085 1617.519043,943.412170 1640.820190,994.453735
	C1669.235718,1056.698120 1706.326294,1113.107056 1752.844727,1163.182495
	C1780.058228,1192.476807 1809.922974,1218.960571 1842.445923,1242.335571
	C1894.637817,1279.847412 1951.330566,1308.692139 2011.878418,1330.047729
	C2086.136475,1356.238770 2163.052734,1367.286621 2241.406982,1369.567139
	C2269.991943,1370.399048 2298.529541,1368.629883 2327.066650,1366.496460
	C2361.199463,1363.944580 2394.905518,1358.935547 2428.309082,1351.700073
	C2491.729980,1337.962646 2551.756836,1315.081177 2608.516846,1283.750732
	C2668.408936,1250.691406 2721.405273,1208.863892 2767.439209,1158.136841
	C2807.268555,1114.246948 2840.132324,1065.685181 2866.304199,1012.619080
	C2887.367676,969.910034 2903.755615,925.430786 2915.199951,879.134949
	C2926.454346,833.608887 2933.133789,787.392761 2935.466797,740.640686
	C2936.958008,710.760193 2937.469727,680.776245 2934.354980,650.889771
	C2932.019775,628.481262 2930.961670,605.876282 2927.391113,583.671265
	C2915.113770,507.313110 2891.030518,434.844452 2853.759277,366.883240
	C2814.930908,296.082642 2764.839844,234.644180 2702.202637,183.559784
	C2662.601318,151.262589 2619.542236,124.491936 2573.482910,102.369064
	C2539.253418,85.928391 2503.946289,72.447197 2467.527100,61.829067
	C2411.528320,45.502384 2354.160400,37.230698 2296.054932,34.554401
	C2262.518555,33.009743 2228.876465,33.321728 2193.460938,36.336227
M328.819885,728.131042
	C328.658142,724.811401 328.423706,721.493408 328.346069,718.171814
	C327.701233,690.568604 329.073578,663.048767 332.020691,635.609314
	C337.449829,585.060730 350.309540,536.544983 371.625732,490.297028
	C392.075317,445.929230 419.537750,406.539093 455.832275,373.816833
	C517.820862,317.929291 591.850159,290.915283 674.332397,286.568176
	C717.539246,284.291077 760.656738,286.849121 802.877563,297.824341
	C832.601257,305.550964 861.259827,315.840118 887.503845,332.149811
	C908.112366,344.957306 928.576721,358.017548 949.502197,370.288269
	C969.267456,381.878632 990.570374,383.231842 1011.881348,375.427826
	C1024.568115,370.781982 1034.627686,361.609039 1042.746216,350.878174
	C1071.230713,313.227570 1099.454102,275.379333 1127.754517,237.589523
	C1134.710449,228.301224 1141.582153,218.949844 1149.615723,208.112335
	C1143.660889,202.857788 1137.716675,198.070175 1132.292480,192.752167
	C1095.138184,156.325668 1052.474609,127.689354 1006.386353,104.021477
	C961.563477,81.003441 914.279480,64.666534 865.325745,52.844425
	C822.638855,42.535717 779.318359,36.520920 735.574707,34.590179
	C697.727966,32.919716 659.755737,33.112087 622.031311,37.740059
	C595.077698,41.046696 567.968628,43.797729 541.345947,48.951164
	C473.422272,62.099369 408.961121,85.338547 347.950287,118.168419
	C283.711365,152.735306 227.117233,197.050125 179.031006,251.765533
	C110.451706,329.799164 64.191917,419.749084 38.635841,520.432983
	C27.752554,563.310120 21.028282,606.891968 18.647446,650.937927
	C16.637981,688.113464 16.838196,725.396729 19.436691,762.669312
	C21.561951,793.153809 24.989708,823.443665 30.586555,853.396790
	C44.276707,926.663513 67.641441,996.645813 103.807518,1062.109253
	C133.277710,1115.452881 169.517532,1163.472656 213.837540,1205.475464
	C246.120575,1236.070679 281.485016,1262.320435 319.822693,1284.729492
	C361.326721,1308.989258 405.153381,1327.940308 451.131897,1341.802979
	C511.237762,1359.924927 573.023621,1367.936646 635.553040,1369.354248
	C665.726379,1370.038086 695.990479,1367.778442 726.183655,1366.258911
	C763.019470,1364.405273 799.330566,1358.466919 835.230652,1350.191406
	C886.646667,1338.339111 935.664673,1320.186035 981.846985,1294.384155
	C1016.594055,1274.970947 1048.517334,1251.765381 1077.605103,1224.736572
	C1097.548828,1206.204346 1116.041138,1186.233643 1132.628662,1163.767700
	C1120.730347,1150.994507 1108.958008,1138.396362 1097.230469,1125.756714
	C1081.400879,1108.696289 1065.673706,1091.540161 1049.775024,1074.544556
	C1036.364380,1060.208740 1023.131348,1045.678589 1009.159607,1031.903931
	C994.867615,1017.813538 977.230408,1013.819519 957.666138,1017.539307
	C942.093079,1020.500244 929.790955,1029.400513 917.626892,1038.836304
	C903.457520,1049.828003 889.412537,1061.091553 874.454956,1070.932007
	C844.737549,1090.482910 812.254395,1103.797241 777.176819,1110.305420
	C738.556702,1117.471069 699.637817,1119.998291 660.344788,1118.527100
	C641.357788,1117.816040 622.634277,1115.960938 604.088562,1112.085571
	C533.251831,1097.283569 474.526550,1062.100464 427.394897,1007.253174
	C389.199463,962.805054 364.450226,911.362122 348.264221,855.521484
	C336.385162,814.539612 330.363007,772.593933 328.819885,728.131042
M1440.659546,1353.936768
	C1441.536621,1353.460815 1442.388916,1352.930176 1443.294434,1352.516846
	C1501.488037,1325.948853 1537.569946,1267.658936 1531.475708,1198.745483
	C1527.997070,1159.410645 1510.394043,1126.797974 1480.901855,1100.198853
	C1431.630615,1055.760986 1355.696533,1048.701294 1300.302368,1076.983643
	C1242.499756,1106.495483 1205.893311,1169.218384 1217.669189,1239.360107
	C1230.386353,1315.107788 1292.631714,1365.545776 1368.365112,1367.646729
	C1392.908325,1368.327759 1416.580811,1364.064087 1440.659546,1353.936768
M3265.599365,1119.465576
	C3260.885986,1114.312988 3256.547852,1108.746948 3251.399414,1104.073975
	C3212.972900,1069.195312 3167.971924,1055.083374 3116.426025,1061.637817
	C3075.893799,1066.791992 3042.307373,1085.286987 3016.754639,1116.573364
	C2979.435059,1162.267334 2971.573975,1214.028320 2991.916016,1269.145142
	C3008.299072,1313.534912 3040.171631,1343.105469 3084.884766,1358.656128
	C3109.417236,1367.188354 3134.608887,1369.654907 3160.373779,1366.322510
	C3207.772949,1360.192017 3245.828613,1338.254761 3272.801270,1298.562988
	C3291.679443,1270.783081 3299.334961,1239.741211 3297.817871,1206.109985
	C3296.375244,1174.141113 3285.810059,1145.853516 3265.599365,1119.465576
M2231.812500,1463.200195
	C2231.761719,1464.197754 2231.667236,1465.195190 2231.666992,1466.192749
	C2231.657471,1580.437378 2231.651123,1694.681885 2231.675049,1808.926514
	C2231.675537,1811.499512 2232.021973,1814.072510 2232.281250,1817.676270
	C2236.318604,1817.676270 2239.888428,1817.676392 2243.458252,1817.676392
	C2280.096436,1817.676514 2316.739014,1818.007202 2353.370605,1817.520142
	C2368.901611,1817.313599 2384.617432,1816.616577 2399.891846,1814.031128
	C2459.738770,1803.901611 2502.974854,1771.600464 2526.121094,1714.873413
	C2544.332275,1670.241699 2545.277588,1624.195435 2531.510742,1578.360962
	C2509.699463,1505.743652 2449.908936,1465.058105 2380.077393,1462.072876
	C2331.208496,1459.983765 2282.174316,1461.761719 2231.812500,1463.200195
M2954.154053,1858.302124
	C2962.384277,1879.169189 2979.237061,1890.467529 2999.145752,1897.789795
	C3029.123535,1908.815430 3060.208008,1910.455566 3091.385742,1905.158081
	C3117.759766,1900.676636 3141.624756,1890.189819 3159.933838,1869.562866
	C3175.680664,1851.822998 3182.199219,1831.305176 3177.603271,1807.925171
	C3175.290771,1796.161011 3168.935303,1786.503052 3158.743164,1779.640869
	C3143.355957,1769.280518 3125.924072,1765.381958 3107.879150,1764.472046
	C3089.934326,1763.567261 3071.913330,1764.247925 3053.954346,1763.520996
	C3042.757812,1763.067749 3031.403320,1762.381958 3021.141602,1756.782227
	C3012.923340,1752.297852 3010.074219,1746.829590 3011.818604,1737.927002
	C3013.199219,1730.881226 3018.649414,1726.743408 3023.498291,1722.225098
	C3027.156494,1718.816162 3031.118896,1721.284058 3034.835449,1721.954468
	C3057.155518,1725.980103 3079.073242,1725.019165 3100.594482,1717.436523
	C3142.808838,1702.562622 3164.072266,1659.511841 3150.175049,1616.952026
	C3149.168457,1613.869995 3148.340576,1610.729614 3147.259766,1607.036255
	C3156.072998,1605.851440 3164.225098,1604.889526 3172.330566,1603.626953
	C3179.979736,1602.435303 3183.915527,1599.295776 3184.250977,1593.782104
	C3184.606934,1587.932617 3184.330811,1582.044556 3184.330811,1575.656494
	C3164.934326,1575.656494 3146.657471,1575.499878 3128.385742,1575.737915
	C3121.621338,1575.825806 3115.384277,1575.189819 3109.313721,1571.668579
	C3104.781738,1569.039917 3099.584961,1567.432007 3094.535400,1565.843140
	C3076.379150,1560.130127 3057.648438,1560.397095 3039.170898,1562.619141
	C3018.970703,1565.048462 3000.506348,1572.985474 2986.004150,1587.635620
	C2953.596436,1620.374146 2956.485840,1679.359497 2996.614014,1706.501587
	C2998.350342,1707.675903 2999.758301,1709.335938 3001.513184,1710.947998
	C2991.673340,1716.930420 2983.647949,1723.905273 2977.924805,1733.045654
	C2971.856934,1742.737427 2970.392090,1753.199097 2972.974365,1764.605103
	C2975.522461,1775.860962 2984.852051,1781.371704 2991.637939,1788.185913
	C2984.443359,1792.732178 2977.536377,1796.704956 2971.049072,1801.273682
	C2954.877930,1812.662354 2945.923828,1833.618774 2954.154053,1858.302124
M351.651764,1514.459473
	C354.137451,1510.663940 356.623108,1506.868408 359.205963,1502.924438
	C340.375610,1485.566772 319.917145,1472.246094 296.018829,1464.861450
	C265.886383,1455.550293 235.023132,1455.040649 204.325974,1460.475220
	C159.719299,1468.372192 122.653503,1489.578613 95.925232,1526.946533
	C75.079338,1556.090332 64.537994,1589.075195 62.483707,1624.541016
	C60.344387,1661.475220 65.298447,1697.470215 81.924469,1731.066040
	C99.361237,1766.299805 125.576500,1792.582764 162.188293,1807.842651
	C198.251328,1822.873901 235.731857,1824.306274 273.478210,1817.365967
	C307.859955,1811.044434 336.744598,1794.123535 359.929749,1766.891846
	C354.339966,1760.611694 348.861481,1754.451904 343.377716,1748.296753
	C336.825378,1740.942505 332.300110,1740.468018 324.630890,1746.406738
	C323.058380,1747.624512 321.675354,1749.083740 320.140320,1750.353516
	C306.391571,1761.727173 291.301300,1770.421021 273.619324,1774.203247
	C256.949341,1777.769043 240.171219,1779.220947 223.172623,1777.657593
	C188.188736,1774.440552 159.731720,1759.364014 139.081848,1730.659180
	C123.364349,1708.810669 116.015244,1684.112305 113.434547,1657.375000
	C110.186813,1623.727051 114.919121,1591.832520 130.833954,1561.974487
	C143.267288,1538.648071 161.862457,1521.773682 186.180893,1511.002319
	C208.064117,1501.309448 231.048645,1498.833374 254.410355,1500.559448
	C274.759308,1502.063110 294.260376,1507.455444 311.342651,1519.502319
	C315.951691,1522.752686 320.639954,1525.924438 325.500061,1528.777588
	C333.056030,1533.213257 338.345612,1532.093140 343.645355,1525.256958
	C346.088867,1522.105103 348.392792,1518.844971 351.651764,1514.459473
M3587.785889,1819.695312
	C3603.069092,1820.939087 3618.334717,1821.087891 3633.404297,1817.824951
	C3669.916504,1809.918579 3697.073486,1789.536011 3711.887451,1755.103149
	C3728.862793,1715.646240 3728.922607,1674.980957 3714.919434,1634.647095
	C3705.517090,1607.565918 3687.823730,1587.049438 3661.775635,1574.048706
	C3635.427734,1560.898560 3607.703125,1558.785645 3579.305908,1563.756958
	C3539.289062,1570.762695 3510.740723,1593.005005 3495.434082,1630.816772
	C3479.411377,1670.398193 3479.990967,1710.696533 3494.770752,1750.319702
	C3503.963379,1774.964966 3520.642090,1794.043945 3544.469727,1806.573730
	C3557.621582,1813.489502 3571.537109,1817.172485 3587.785889,1819.695312
M1882.314819,1602.720581
	C1869.663696,1586.601440 1853.608398,1575.179321 1834.291016,1568.492310
	C1810.492554,1560.253906 1786.045166,1559.174561 1761.565308,1564.131226
	C1722.943481,1571.951294 1695.490601,1594.161743 1680.454224,1630.741089
	C1666.436646,1664.841553 1665.749390,1700.220215 1674.877075,1735.329956
	C1683.739868,1769.420898 1703.731689,1795.518921 1736.874268,1810.177368
	C1755.505493,1818.417480 1775.022949,1820.895264 1795.204224,1820.394409
	C1845.791748,1819.138794 1886.043213,1791.538086 1901.890747,1742.677734
	C1909.471313,1719.305298 1911.203369,1695.391357 1908.444214,1670.956421
	C1905.667603,1646.365601 1898.525879,1623.608398 1882.314819,1602.720581
M605.942627,1613.307007
	C593.573364,1590.792847 575.569580,1574.891113 551.031616,1566.773438
	C529.312744,1559.588379 507.057129,1559.429443 485.122040,1564.406128
	C450.671387,1572.222290 425.541107,1592.517944 410.233124,1624.582397
	C401.210083,1643.482178 397.449768,1663.490356 397.261658,1684.357300
	C397.012878,1711.954102 401.089447,1738.513428 414.691315,1763.004761
	C426.339233,1783.978027 442.572723,1800.205811 464.737274,1809.743408
	C504.049316,1826.659790 543.256042,1823.202271 581.722717,1807.073486
	C594.765381,1801.604858 606.810608,1793.707031 616.035339,1781.781616
	C613.399658,1778.198730 611.086182,1774.997803 608.715088,1771.840088
	C598.133179,1757.748169 596.032898,1757.115112 581.150024,1766.457153
	C559.931702,1779.776123 537.139709,1786.467163 512.009460,1784.307129
	C492.690399,1782.646851 475.953613,1775.592651 463.412384,1760.288940
	C447.292603,1740.618530 442.717621,1717.384033 442.152069,1692.024902
	C445.890106,1692.024902 448.830200,1692.023438 451.770294,1692.025269
	C499.328583,1692.055420 546.886902,1692.089966 594.445190,1692.109253
	C599.103516,1692.111206 603.777832,1692.246582 608.416382,1691.918701
	C615.543335,1691.414917 617.493286,1690.136108 618.153748,1683.143433
	C618.890381,1675.343384 618.543762,1667.416016 618.311218,1659.554565
	C617.842651,1643.714355 613.560730,1628.823853 605.942627,1613.307007
M1172.077881,1744.660156
	C1163.798950,1728.398193 1161.664673,1710.831055 1160.481201,1692.047607
	C1164.343994,1692.047607 1167.606323,1692.046875 1170.868530,1692.047607
	C1195.150635,1692.053955 1219.432739,1692.079956 1243.714844,1692.061768
	C1270.991211,1692.041382 1298.268921,1692.112305 1325.543457,1691.866577
	C1334.943359,1691.781738 1337.296387,1689.106812 1337.674561,1679.980835
	C1338.267700,1665.662720 1337.571899,1651.429688 1333.790894,1637.538574
	C1323.546021,1599.899292 1300.328369,1574.909546 1262.245239,1564.411743
	C1250.171631,1561.083740 1237.854980,1561.225098 1225.597778,1561.739624
	C1183.719360,1563.498291 1151.340820,1582.255371 1131.925537,1619.395996
	C1108.768311,1663.694946 1110.386230,1709.687622 1129.525024,1754.964233
	C1141.751831,1783.889038 1163.483276,1803.918091 1193.605591,1813.724243
	C1229.968140,1825.561890 1265.642090,1822.051270 1300.387939,1807.017334
	C1313.603882,1801.299072 1325.389160,1793.443726 1334.420532,1781.482544
	C1332.375366,1778.580200 1330.572510,1775.838867 1328.588135,1773.236084
	C1317.222412,1758.328491 1315.967163,1756.548096 1297.903931,1767.458374
	C1279.397583,1778.635986 1259.753784,1785.145386 1237.526855,1784.559937
	C1208.279053,1783.789673 1186.487549,1772.051025 1172.077881,1744.660156
M2777.596436,1606.388184
	C2792.515137,1598.623535 2808.376465,1596.142578 2824.956299,1598.258667
	C2837.734375,1599.889526 2848.616211,1605.253784 2855.412354,1616.582886
	C2866.441650,1634.968018 2864.668457,1655.145996 2863.850098,1675.651245
	C2858.752197,1675.651245 2854.784180,1675.603027 2850.817383,1675.659058
	C2822.104736,1676.064575 2794.000977,1680.083374 2766.869385,1689.855347
	C2752.013184,1695.206177 2737.900146,1702.191650 2727.030518,1713.751465
	C2710.367432,1731.472412 2706.705811,1752.562500 2713.490479,1775.724243
	C2718.762939,1793.721680 2729.703369,1806.588257 2746.958008,1814.237915
	C2765.614990,1822.509399 2785.015625,1822.475586 2804.479492,1819.219116
	C2822.468506,1816.209229 2838.586426,1808.460449 2852.714111,1796.777222
	C2857.520264,1792.802612 2862.374023,1788.885010 2868.022705,1784.274780
	C2869.604004,1791.931274 2870.983887,1798.721802 2872.413574,1805.501831
	C2873.688965,1811.550293 2876.721924,1815.395996 2883.425293,1816.569458
	C2891.988770,1818.068726 2900.344971,1818.053223 2909.168213,1816.800659
	C2909.371094,1814.275146 2909.661621,1812.338745 2909.662598,1810.401978
	C2909.687500,1758.761841 2910.021729,1707.117676 2909.432861,1655.484253
	C2909.294922,1643.376221 2907.130127,1631.001831 2903.945068,1619.280640
	C2898.030029,1597.511353 2885.204102,1580.576538 2864.487793,1570.396240
	C2846.083740,1561.352173 2826.892334,1559.544556 2806.459961,1561.329346
	C2773.331299,1564.223511 2746.403076,1578.663574 2722.578125,1601.133301
	C2724.762451,1605.012817 2727.009033,1608.684082 2728.951660,1612.509888
	C2736.390137,1627.160645 2747.187988,1625.768921 2756.905029,1619.367920
	C2763.285645,1615.164551 2769.826172,1611.204712 2777.596436,1606.388184
M883.687195,1763.000122
	C883.687317,1726.347046 883.979004,1689.690186 883.503601,1653.043335
	C883.367188,1642.532715 882.198242,1631.729980 879.458313,1621.614990
	C870.603394,1588.925659 850.234680,1567.410400 815.775391,1562.453125
	C787.447021,1558.378052 760.772888,1563.424683 737.764038,1581.804199
	C730.860046,1587.319092 724.247314,1593.198486 716.808289,1599.497437
	C715.739380,1591.541992 714.907349,1584.421875 713.791992,1577.346680
	C712.927917,1571.865234 711.018433,1566.312134 704.638062,1565.903320
	C694.839722,1565.275391 684.971558,1565.738159 674.235413,1565.738159
	C674.266663,1650.053467 673.972351,1733.655884 674.368225,1817.687256
	C683.127930,1817.687256 690.451599,1817.954102 697.746704,1817.611450
	C704.883118,1817.276245 712.238953,1819.166016 719.687134,1816.157593
	C719.687134,1812.181274 719.687134,1808.540161 719.687134,1804.898926
	C719.687134,1751.918945 720.042175,1698.934448 719.391052,1645.962524
	C719.258972,1635.215576 722.438049,1627.827881 730.260559,1621.088745
	C748.042480,1605.769165 767.774536,1596.312622 791.875671,1597.646606
	C814.256531,1598.885376 830.251648,1611.359009 835.560181,1633.071289
	C837.276367,1640.090454 838.159790,1647.486938 838.191162,1654.716309
	C838.410339,1705.362915 838.296448,1756.010864 838.327942,1806.658447
	C838.330139,1810.151489 838.645691,1813.644165 838.817993,1817.187866
	C854.315918,1817.187866 868.511169,1817.187866 883.687195,1817.187866
	C883.687195,1799.471436 883.687195,1782.235840 883.687195,1763.000122
M3432.172119,1619.176270
	C3426.092285,1599.486328 3415.770752,1582.953979 3397.542725,1572.182007
	C3382.694824,1563.407349 3366.584961,1561.327637 3349.607666,1561.484741
	C3329.603516,1561.669800 3311.626465,1567.162231 3295.588135,1578.855347
	C3287.072754,1585.063843 3279.019531,1591.905884 3270.010742,1599.054443
	C3269.188721,1591.828979 3268.550781,1585.048096 3267.614990,1578.308472
	C3266.586670,1570.900879 3262.961670,1566.116333 3256.979736,1565.789795
	C3247.496094,1565.272217 3237.963379,1565.651733 3228.222168,1565.651733
	C3228.222168,1649.755249 3228.222168,1733.189575 3228.222168,1817.147949
	C3242.926758,1817.147949 3257.062744,1817.147949 3272.339355,1817.147949
	C3272.339355,1813.081787 3272.339600,1809.523560 3272.339600,1805.965210
	C3272.339600,1755.321777 3272.339600,1704.678467 3272.339600,1654.035034
	C3272.339600,1629.022095 3272.339600,1629.022339 3292.598877,1613.918457
	C3292.865967,1613.719604 3293.107178,1613.485474 3293.378662,1613.293579
	C3308.780518,1602.403442 3325.701416,1596.516724 3344.768066,1597.675659
	C3364.749756,1598.890381 3380.077148,1607.341309 3386.924805,1626.911377
	C3389.722656,1634.906616 3391.384766,1643.721802 3391.452148,1652.180542
	C3391.858398,1703.487183 3391.654785,1754.798462 3391.654785,1806.108276
	C3391.654785,1809.649780 3391.654785,1813.191406 3391.654785,1817.488647
	C3407.644531,1817.668457 3422.368652,1817.960693 3437.219727,1817.367065
	C3437.431152,1813.925171 3437.657471,1811.954834 3437.658203,1809.984375
	C3437.677490,1758.341431 3437.984131,1706.695190 3437.432617,1655.058105
	C3437.310547,1643.618164 3434.139893,1632.210815 3432.172119,1619.176270
M2090.350098,1471.158447
	C2090.350098,1467.919067 2090.350098,1464.679810 2090.350098,1461.348267
	C2071.933105,1454.990601 2053.771484,1454.518433 2035.778809,1458.534912
	C2011.537476,1463.946045 1992.910278,1477.250854 1981.994507,1500.339844
	C1975.481812,1514.115479 1972.833374,1528.646729 1972.363403,1543.671875
	C1972.096313,1552.213745 1972.315186,1560.770752 1972.315186,1570.398315
	C1958.469727,1570.398315 1945.672607,1570.398315 1932.318481,1570.398315
	C1932.318481,1575.131958 1932.299072,1578.754761 1932.322144,1582.377319
	C1932.406250,1595.579102 1936.504517,1600.139648 1949.693970,1601.678589
	C1956.880737,1602.517334 1964.072876,1603.310425 1972.359131,1604.248169
	C1972.359131,1675.411499 1972.359131,1746.167358 1972.359131,1817.681641
	C1980.776123,1817.681641 1988.046265,1817.719971 1995.315796,1817.671143
	C2002.816284,1817.620728 2010.316162,1817.485474 2018.553711,1817.377808
	C2018.553711,1745.559326 2018.553711,1675.041626 2018.553711,1603.407227
	C2042.442505,1603.407227 2065.571533,1603.407227 2089.128906,1603.407227
	C2089.128906,1591.817017 2089.128906,1581.353516 2089.128906,1569.924072
	C2064.787354,1569.924072 2040.974731,1569.924072 2016.355469,1569.924072
	C2016.355469,1560.389771 2016.080200,1551.787720 2016.453735,1543.213867
	C2016.697754,1537.612427 2017.467773,1531.956787 2018.720703,1526.489990
	C2023.438843,1505.903198 2036.169678,1494.638062 2057.500732,1492.366943
	C2064.755859,1491.594482 2072.127441,1491.964233 2079.439209,1491.657227
	C2088.045166,1491.296021 2089.992920,1489.344238 2090.333008,1481.006714
	C2090.441406,1478.345459 2090.351074,1475.676025 2090.350098,1471.158447
M3790.503662,1770.152588
	C3780.717041,1762.000000 3769.996094,1765.857910 3765.055664,1776.226196
	C3762.797852,1780.963989 3759.822754,1785.359863 3756.886719,1790.403076
	C3759.428467,1792.630737 3761.531982,1794.669312 3763.830811,1796.456299
	C3775.250488,1805.332153 3788.119141,1811.470093 3801.857178,1815.683960
	C3821.507080,1821.711060 3841.661133,1822.559692 3861.861084,1819.623413
	C3887.896729,1815.838745 3910.542480,1805.314087 3924.611816,1782.005615
	C3937.812988,1760.135132 3941.612061,1736.661133 3929.962891,1712.739502
	C3922.267090,1696.936279 3908.171387,1687.898438 3892.361084,1681.822266
	C3877.204834,1675.997314 3861.610352,1671.323120 3846.291748,1665.906982
	C3835.670898,1662.151733 3824.923096,1658.606567 3816.165283,1650.959473
	C3807.931885,1643.770630 3804.646484,1635.273682 3807.390381,1624.375366
	C3811.070068,1609.761475 3821.481445,1602.208374 3834.840576,1598.329712
	C3851.968262,1593.357056 3869.037842,1594.659790 3885.465332,1601.663452
	C3892.774170,1604.779541 3899.675049,1608.845947 3906.950684,1612.050659
	C3913.470703,1614.922607 3917.744873,1613.812500 3921.702637,1608.179565
	C3925.480469,1602.803345 3928.665527,1597.010742 3932.843994,1590.207764
	C3924.381104,1584.563354 3916.722656,1578.810181 3908.475342,1574.084595
	C3889.069092,1562.964844 3867.785889,1560.859253 3845.839600,1561.551514
	C3824.891357,1562.212402 3806.168701,1568.412964 3789.435791,1581.052612
	C3755.852539,1606.420410 3749.647705,1668.218140 3799.865234,1691.538086
	C3813.949219,1698.078369 3829.088135,1702.320435 3843.635742,1707.896851
	C3855.371582,1712.395508 3867.233398,1716.728394 3878.493164,1722.248901
	C3886.427490,1726.139160 3892.330811,1733.119019 3893.378906,1742.268921
	C3895.033691,1756.716797 3890.760986,1769.159302 3878.539551,1778.146240
	C3870.522705,1784.041260 3861.343018,1786.531006 3851.687012,1787.639404
	C3829.478271,1790.188843 3809.737793,1783.733643 3790.503662,1770.152588
M4014.188477,1792.468628
	C4022.721924,1808.225830 4036.230957,1816.869995 4053.607910,1819.838745
	C4071.337402,1822.867676 4088.613037,1820.771606 4105.151367,1813.967041
	C4114.263184,1810.217773 4123.163086,1805.723633 4129.739258,1797.490967
	C4125.677734,1790.662964 4121.950684,1784.004028 4117.839355,1777.591431
	C4113.452148,1770.748169 4110.993652,1770.600220 4103.961426,1774.480469
	C4098.208008,1777.654907 4092.237305,1780.731689 4085.995361,1782.664185
	C4072.616211,1786.806641 4053.291504,1779.576172 4052.296875,1758.872070
	C4052.121338,1755.219849 4051.717285,1751.570435 4051.714111,1747.919434
	C4051.673340,1702.939941 4051.687500,1657.960449 4051.687500,1612.980957
	C4051.687500,1610.097656 4051.687500,1607.214355 4051.687500,1603.350952
	C4076.163330,1603.350952 4099.621094,1603.350952 4123.125977,1603.350952
	C4123.125977,1591.842407 4123.125977,1581.344482 4123.125977,1569.803955
	C4099.126465,1569.803955 4075.671143,1569.803955 4051.388428,1569.803955
	C4051.388428,1540.587646 4051.388428,1512.414062 4051.388428,1483.650635
	C4043.574219,1483.650635 4036.608398,1483.461060 4029.657471,1483.701172
	C4021.933594,1483.968140 4018.947266,1486.740112 4017.868652,1494.421265
	C4016.488770,1504.249023 4015.360596,1514.111938 4014.057129,1523.950806
	C4012.064941,1538.987061 4010.016602,1554.015869 4007.958496,1569.297119
	C3993.817627,1571.265015 3980.204102,1573.159668 3966.313721,1575.092651
	C3966.313721,1580.611328 3966.176270,1584.928467 3966.340576,1589.234253
	C3966.749512,1599.951294 3970.324707,1603.507812 3980.919434,1603.662720
	C3989.146729,1603.783081 3997.377197,1603.686890 4006.305664,1603.686890
	C4006.305664,1607.889771 4006.305420,1611.147339 4006.305664,1614.404907
	C4006.306641,1662.049927 4006.192627,1709.695312 4006.390869,1757.339478
	C4006.439453,1768.982910 4008.106201,1780.492798 4014.188477,1792.468628
M1047.180908,1818.405518
	C1062.115356,1815.413574 1075.186157,1808.845825 1086.969971,1798.028687
	C1082.491455,1790.680176 1078.447388,1783.471680 1073.834473,1776.647583
	C1069.782104,1770.652588 1067.872925,1770.657104 1061.404541,1774.168091
	C1055.889526,1777.161743 1050.410767,1780.522339 1044.499023,1782.425903
	C1029.401733,1787.287109 1013.716003,1779.295898 1010.332825,1765.298584
	C1009.099792,1760.197144 1008.438599,1754.830200 1008.422302,1749.581543
	C1008.278625,1703.286499 1008.329346,1656.990845 1008.369873,1610.695312
	C1008.371826,1608.483154 1008.818054,1606.271240 1009.120178,1603.478516
	C1032.871704,1603.478516 1056.094360,1603.478516 1079.718750,1603.478516
	C1079.718750,1592.087769 1079.718750,1581.349487 1079.718750,1570.001099
	C1067.502686,1570.001099 1055.902832,1570.028076 1044.303345,1569.993652
	C1032.473511,1569.958496 1020.631714,1570.144165 1007.979858,1569.865479
	C1007.979858,1540.338501 1007.979858,1512.203125 1007.979858,1484.252319
	C1006.461853,1483.953247 1005.833618,1483.726562 1005.203674,1483.721558
	C999.875305,1483.678955 994.545959,1483.617432 989.218140,1483.675049
	C978.539001,1483.790527 975.834229,1486.080322 974.372009,1496.784790
	C972.804016,1508.263794 971.557129,1519.786377 970.061584,1531.275757
	C968.406677,1543.989502 966.628540,1556.687134 964.897888,1569.437500
	C957.675598,1570.406128 951.117737,1571.284668 944.560181,1572.165527
	C937.759888,1573.078979 930.959900,1573.994751 923.655151,1574.977417
	C923.655151,1579.761475 924.001648,1583.760132 923.589417,1587.678955
	C922.414795,1598.845947 928.008911,1604.746216 939.306824,1603.798706
	C947.133057,1603.142456 955.058716,1603.672607 963.654053,1603.672607
	C963.654053,1608.058960 963.654175,1611.323242 963.654175,1614.587524
	C963.654297,1662.215210 963.637207,1709.843018 963.683105,1757.470703
	C963.687256,1761.786255 963.808899,1766.138794 964.364136,1770.410767
	C967.929688,1797.845459 985.431274,1816.166870 1011.164246,1819.977295
	C1022.742126,1821.691772 1034.179321,1821.447876 1047.180908,1818.405518
M4446.762695,1811.911743
	C4464.157715,1805.879395 4478.210449,1795.281006 4489.691895,1780.962769
	C4487.329590,1777.698608 4485.228516,1774.713257 4483.037598,1771.795898
	C4481.443848,1769.673340 4479.774414,1767.603149 4478.062012,1765.574341
	C4472.697266,1759.217896 4467.716797,1758.410034 4460.710449,1763.028198
	C4457.389648,1765.217041 4454.358398,1767.844238 4451.182617,1770.255249
	C4432.385254,1784.526367 4410.802734,1787.281982 4388.606445,1783.143677
	C4366.128906,1778.952881 4350.397461,1764.857422 4341.947754,1743.668701
	C4328.355957,1709.587158 4328.393066,1674.864258 4340.781738,1640.617310
	C4351.085449,1612.132935 4378.420410,1594.910522 4408.705566,1596.445312
	C4422.738281,1597.156494 4436.225098,1600.579224 4448.376953,1608.114380
	C4452.047363,1610.390259 4455.616699,1612.868896 4459.443848,1614.843750
	C4465.420898,1617.927490 4470.341309,1617.015015 4474.471191,1611.819824
	C4478.773926,1606.407837 4482.617676,1600.631592 4486.783691,1594.845337
	C4485.712891,1593.430420 4485.065918,1592.277588 4484.149902,1591.410156
	C4469.580078,1577.621582 4452.618164,1567.856567 4432.887695,1564.332886
	C4420.895020,1562.191040 4408.437988,1561.450806 4396.245605,1561.835205
	C4350.495117,1563.277588 4316.667969,1584.606323 4298.346191,1626.586426
	C4280.773438,1666.850342 4280.627930,1708.675659 4295.730469,1749.936401
	C4308.280762,1784.225830 4332.078613,1807.672119 4367.874512,1816.955078
	C4393.918945,1823.709229 4419.898926,1821.303345 4446.762695,1811.911743
M1438.353638,1701.000366
	C1438.353638,1689.008545 1438.180420,1677.012695 1438.453247,1665.027100
	C1438.541626,1661.143677 1439.016846,1656.906494 1440.678711,1653.495361
	C1444.451660,1645.750610 1448.557739,1638.063232 1453.448730,1630.989014
	C1465.202271,1613.989014 1481.363403,1605.077026 1502.459106,1605.598999
	C1510.830200,1605.806152 1518.897461,1606.689819 1526.935425,1609.309692
	C1534.400879,1611.743042 1538.935059,1609.807373 1540.364746,1603.545776
	C1542.904419,1592.423218 1544.528076,1581.091309 1546.490479,1570.095337
	C1524.258423,1557.799927 1502.883911,1557.469604 1481.276855,1567.190430
	C1464.561401,1574.710693 1453.275146,1588.119873 1443.673584,1603.175171
	C1441.345947,1606.824707 1439.142944,1610.553711 1435.653076,1616.254883
	C1434.893188,1604.245605 1434.402954,1594.665405 1433.626221,1585.108521
	C1433.306641,1581.174927 1432.704590,1577.196167 1431.622925,1573.411621
	C1430.492432,1569.456665 1428.247192,1565.864136 1423.496460,1565.781006
	C1413.365356,1565.603271 1403.228760,1565.726562 1393.060547,1565.726562
	C1393.060547,1649.980713 1393.060547,1733.363159 1393.060547,1817.143188
	C1408.286377,1817.143188 1422.767212,1817.143188 1438.353638,1817.143188
	C1438.353638,1778.743774 1438.353638,1740.872070 1438.353638,1701.000366
M2647.699219,1786.983154
	C2647.699219,1713.407471 2647.699219,1639.831787 2647.699219,1565.946533
	C2632.162598,1565.946533 2617.452637,1565.946533 2603.047607,1565.946533
	C2603.047607,1650.269287 2603.047607,1733.730103 2603.047607,1817.692139
	C2611.082520,1817.692139 2618.397461,1817.958862 2625.684082,1817.616455
	C2632.826660,1817.280762 2640.183350,1819.183960 2647.699219,1816.113892
	C2647.699219,1806.908813 2647.699219,1797.940918 2647.699219,1786.983154
M4226.752930,1808.654785
	C4226.752930,1727.849731 4226.752930,1647.044556 4226.752930,1565.557739
	C4211.156250,1565.296875 4196.506348,1564.744141 4181.955566,1565.790771
	C4179.870605,1621.905762 4180.907227,1809.215820 4183.314453,1817.358887
	C4197.201660,1817.358887 4211.108887,1817.358887 4225.671387,1817.358887
	C4225.958984,1814.955933 4226.220703,1812.768921 4226.752930,1808.654785
M4229.890625,1467.399170
	C4220.690430,1456.676758 4209.382812,1451.828125 4195.454102,1456.117676
	C4182.072266,1460.238770 4174.530273,1470.143433 4172.781250,1483.585571
	C4171.155762,1496.076538 4176.875977,1506.168213 4187.020508,1513.349609
	C4197.172852,1520.536133 4208.302734,1520.397339 4219.081055,1515.158691
	C4235.463867,1507.196411 4242.677246,1486.048950 4229.890625,1467.399170
M2656.005615,1496.292603
	C2661.582764,1481.907715 2652.377197,1465.054810 2639.966797,1458.550537
	C2625.519287,1450.978516 2610.428467,1455.069336 2600.784180,1466.707520
	C2592.913086,1476.205811 2591.153320,1487.085693 2595.637939,1498.335449
	C2600.243652,1509.889160 2609.007080,1517.044067 2621.766357,1518.347412
	C2638.166016,1520.022339 2648.711426,1511.951904 2656.005615,1496.292603
z"/>
<path fill="#cc0000" opacity="2.000000" stroke="none"
	d="
M4692.000000,1765.062744
	C4690.862793,1766.459717 4688.998047,1766.636108 4688.692383,1767.419800
	C4674.538086,1803.739502 4645.350586,1817.214722 4609.091797,1820.396484
	C4583.338867,1822.656494 4558.898926,1818.488037 4536.125977,1806.163208
	C4528.294434,1801.924561 4521.052734,1796.596313 4513.003906,1791.419800
	C4517.009277,1784.629639 4520.191895,1778.450195 4524.112305,1772.780396
	C4529.375488,1765.168579 4535.840820,1763.799072 4544.066406,1768.285645
	C4549.600098,1771.304443 4554.650879,1775.222778 4560.235352,1778.129761
	C4582.974609,1789.967163 4606.345703,1792.572510 4630.018066,1781.177124
	C4645.005859,1773.962280 4652.443359,1758.905518 4650.103516,1742.369141
	C4648.836914,1733.420288 4643.594238,1726.693359 4636.051270,1722.831421
	C4625.178223,1717.264526 4613.700684,1712.813599 4602.289062,1708.380005
	C4586.834473,1702.375732 4570.732910,1697.846069 4555.730469,1690.907104
	C4515.085449,1672.107422 4510.839844,1624.756592 4533.891602,1593.782593
	C4549.201660,1573.210205 4571.274414,1564.121948 4595.874512,1561.963989
	C4613.012207,1560.460815 4630.455078,1560.592407 4647.241699,1566.291260
	C4662.551758,1571.488892 4676.457520,1578.903687 4688.777832,1591.290894
	C4685.045898,1597.442139 4681.761230,1603.919189 4677.439941,1609.608276
	C4674.523926,1613.447266 4669.984375,1614.967529 4664.930176,1612.417725
	C4657.821289,1608.830933 4650.716797,1605.199707 4643.411133,1602.048828
	C4626.680176,1594.832886 4609.340820,1593.352417 4591.776367,1598.285034
	C4582.718262,1600.828735 4574.793945,1605.384766 4568.983887,1613.418823
	C4561.350098,1623.974121 4560.287598,1644.225952 4575.469238,1652.840576
	C4582.655273,1656.918213 4589.985840,1660.969971 4597.692383,1663.856079
	C4614.476074,1670.141602 4631.669434,1675.332397 4648.458496,1681.605957
	C4665.768555,1688.074341 4680.138672,1698.412598 4688.613770,1715.555176
	C4688.991699,1716.320557 4690.126953,1716.712036 4691.454590,1716.638916
	C4692.000000,1732.041870 4692.000000,1748.083618 4692.000000,1765.062744
z"/>
<path fill="#cc0000" opacity="2.000000" stroke="none"
	d="
M3985.779785,48.336815
	C4032.547363,49.846375 4078.038574,54.104317 4123.086426,62.804157
	C4184.424316,74.649979 4243.101562,94.451920 4298.928711,122.325851
	C4349.406250,147.528702 4396.071289,178.525299 4438.060059,216.478455
	C4487.621094,261.276154 4528.721191,312.754364 4561.160645,371.061218
	C4594.184570,430.418915 4617.139648,493.556061 4629.937012,560.297546
	C4634.929199,586.335999 4639.210938,612.492371 4640.375488,639.060730
	C4641.363770,661.614868 4643.768555,684.177368 4643.442871,706.705811
	C4642.358887,781.761963 4632.223633,855.503296 4607.844238,926.836914
	C4580.425781,1007.064514 4539.288574,1079.427002 4482.667480,1142.694336
	C4436.321289,1194.480225 4382.193848,1236.452881 4321.199219,1269.750854
	C4254.398926,1306.217773 4183.282715,1330.269165 4108.507324,1343.305908
	C4082.778320,1347.791382 4056.583496,1349.770752 4030.536621,1352.202026
	C4015.346436,1353.619873 4000.029785,1354.196045 3984.767090,1354.247192
	C3813.508301,1354.820679 3642.248779,1355.218628 3470.989502,1355.662109
	C3467.047607,1355.672241 3463.105713,1355.663330 3459.369873,1355.663330
	C3457.302979,1347.846558 3456.473877,67.050583 3458.479980,48.336815
	C3633.818359,48.336815 3809.313721,48.336815 3985.779785,48.336815
M4166.522461,1067.611938
	C4224.722656,1030.405762 4265.393066,978.750977 4292.408203,915.642090
	C4317.962891,855.946289 4329.052246,793.205200 4331.475586,728.809814
	C4332.925293,690.302795 4331.655273,651.784729 4326.334473,613.482422
	C4318.782227,559.120117 4303.978516,507.050232 4278.334473,458.321106
	C4254.577637,413.179047 4222.674805,375.027039 4180.893066,345.447113
	C4120.899414,302.973785 4053.094482,284.187653 3980.606689,282.648102
	C3911.327881,281.176727 3841.993652,282.324982 3772.683594,282.348816
	C3769.809814,282.349792 3766.936035,282.625854 3764.283203,282.762421
	C3764.283203,562.393555 3764.283203,841.134827 3764.283203,1120.335327
	C3768.522217,1120.335327 3772.145996,1120.335327 3775.769775,1120.335327
	C3841.081055,1120.335327 3906.392822,1120.445801 3971.703613,1120.245117
	C3985.291992,1120.203369 3998.910645,1119.410645 4012.457520,1118.276245
	C4067.302246,1113.683105 4118.281738,1097.088989 4166.522461,1067.611938
z"/>
<path fill="#cc0000" opacity="2.000000" stroke="none"
	d="
M2194.406250,36.332245
	C2228.876465,33.321728 2262.518555,33.009743 2296.054932,34.554401
	C2354.160400,37.230698 2411.528320,45.502384 2467.527100,61.829067
	C2503.946289,72.447197 2539.253418,85.928391 2573.482910,102.369064
	C2619.542236,124.491936 2662.601318,151.262589 2702.202637,183.559784
	C2764.839844,234.644180 2814.930908,296.082642 2853.759277,366.883240
	C2891.030518,434.844452 2915.113770,507.313110 2927.391113,583.671265
	C2930.961670,605.876282 2932.019775,628.481262 2934.354980,650.889771
	C2937.469727,680.776245 2936.958008,710.760193 2935.466797,740.640686
	C2933.133789,787.392761 2926.454346,833.608887 2915.199951,879.134949
	C2903.755615,925.430786 2887.367676,969.910034 2866.304199,1012.619080
	C2840.132324,1065.685181 2807.268555,1114.246948 2767.439209,1158.136841
	C2721.405273,1208.863892 2668.408936,1250.691406 2608.516846,1283.750732
	C2551.756836,1315.081177 2491.729980,1337.962646 2428.309082,1351.700073
	C2394.905518,1358.935547 2361.199463,1363.944580 2327.066650,1366.496460
	C2298.529541,1368.629883 2269.991943,1370.399048 2241.406982,1369.567139
	C2163.052734,1367.286621 2086.136475,1356.238770 2011.878418,1330.047729
	C1951.330566,1308.692139 1894.637817,1279.847412 1842.445923,1242.335571
	C1809.922974,1218.960571 1780.058228,1192.476807 1752.844727,1163.182495
	C1706.326294,1113.107056 1669.235718,1056.698120 1640.820190,994.453735
	C1617.519043,943.412170 1600.677124,890.387085 1590.858398,835.255554
	C1586.509155,810.836182 1584.358765,786.004150 1581.733521,761.303772
	C1577.821655,724.497803 1578.615723,687.517883 1580.692261,650.713135
	C1582.237061,623.332336 1586.056885,595.970703 1590.604980,568.893005
	C1598.380615,522.600525 1611.796875,477.802155 1629.492065,434.272461
	C1657.293701,365.881042 1695.219360,303.874054 1744.554565,248.822174
	C1796.213989,191.176773 1856.894165,145.511978 1925.689209,110.294525
	C1981.327515,81.812271 2039.675049,60.995461 2100.979736,49.077049
	C2127.278076,43.964275 2154.068115,41.373936 2180.641846,37.689011
	C2184.895508,37.099159 2189.187012,36.780346 2194.406250,36.332245
M2588.521484,907.520813
	C2616.574463,840.490784 2624.709473,769.911011 2625.220947,698.103638
	C2625.353271,679.551758 2623.471436,660.977600 2622.309814,642.426514
	C2620.627686,615.562805 2616.074463,589.119690 2609.839355,562.975098
	C2597.469482,511.105133 2577.501465,462.617523 2546.021973,419.161987
	C2517.195068,379.368225 2480.799805,348.630341 2437.344971,325.886444
	C2389.386719,300.785278 2337.838867,289.384949 2284.352051,286.610077
	C2256.876221,285.184662 2229.306641,286.096466 2201.776855,289.401245
	C2157.780029,294.682770 2115.987793,306.424103 2076.636475,326.885315
	C2023.576904,354.474487 1982.519043,394.614410 1951.925049,445.719879
	C1932.162842,478.730896 1918.220215,514.174072 1908.301880,551.272400
	C1897.288696,592.466064 1892.080200,634.536011 1890.541260,677.006714
	C1889.784180,697.898682 1890.597412,718.907166 1891.838501,739.795227
	C1893.074951,760.604675 1894.899292,781.452637 1897.935913,802.067261
	C1905.745972,855.085938 1921.870117,905.496033 1948.366089,952.273438
	C1979.490234,1007.221680 2022.694580,1049.721436 2079.260498,1078.376587
	C2133.105713,1105.653442 2190.840820,1115.832397 2250.475586,1117.563599
	C2261.058838,1117.870850 2271.679199,1116.618896 2282.289062,1116.367798
	C2322.783691,1115.408936 2362.046631,1107.886597 2400.061035,1094.044556
	C2454.347168,1074.277710 2500.231934,1042.645874 2536.579346,997.368835
	C2558.201416,970.435181 2574.856689,940.739502 2588.521484,907.520813
z"/>
<path fill="#cc0000" opacity="2.000000" stroke="none"
	d="
M329.079590,729.033203
	C330.363007,772.593933 336.385162,814.539612 348.264221,855.521484
	C364.450226,911.362122 389.199463,962.805054 427.394897,1007.253174
	C474.526550,1062.100464 533.251831,1097.283569 604.088562,1112.085571
	C622.634277,1115.960938 641.357788,1117.816040 660.344788,1118.527100
	C699.637817,1119.998291 738.556702,1117.471069 777.176819,1110.305420
	C812.254395,1103.797241 844.737549,1090.482910 874.454956,1070.932007
	C889.412537,1061.091553 903.457520,1049.828003 917.626892,1038.836304
	C929.790955,1029.400513 942.093079,1020.500244 957.666138,1017.539307
	C977.230408,1013.819519 994.867615,1017.813538 1009.159607,1031.903931
	C1023.131348,1045.678589 1036.364380,1060.208740 1049.775024,1074.544556
	C1065.673706,1091.540161 1081.400879,1108.696289 1097.230469,1125.756714
	C1108.958008,1138.396362 1120.730347,1150.994507 1132.628662,1163.767700
	C1116.041138,1186.233643 1097.548828,1206.204346 1077.605103,1224.736572
	C1048.517334,1251.765381 1016.594055,1274.970947 981.846985,1294.384155
	C935.664673,1320.186035 886.646667,1338.339111 835.230652,1350.191406
	C799.330566,1358.466919 763.019470,1364.405273 726.183655,1366.258911
	C695.990479,1367.778442 665.726379,1370.038086 635.553040,1369.354248
	C573.023621,1367.936646 511.237762,1359.924927 451.131897,1341.802979
	C405.153381,1327.940308 361.326721,1308.989258 319.822693,1284.729492
	C281.485016,1262.320435 246.120575,1236.070679 213.837540,1205.475464
	C169.517532,1163.472656 133.277710,1115.452881 103.807518,1062.109253
	C67.641441,996.645813 44.276707,926.663513 30.586555,853.396790
	C24.989708,823.443665 21.561951,793.153809 19.436691,762.669312
	C16.838196,725.396729 16.637981,688.113464 18.647446,650.937927
	C21.028282,606.891968 27.752554,563.310120 38.635841,520.432983
	C64.191917,419.749084 110.451706,329.799164 179.031006,251.765533
	C227.117233,197.050125 283.711365,152.735306 347.950287,118.168419
	C408.961121,85.338547 473.422272,62.099369 541.345947,48.951164
	C567.968628,43.797729 595.077698,41.046696 622.031311,37.740059
	C659.755737,33.112087 697.727966,32.919716 735.574707,34.590179
	C779.318359,36.520920 822.638855,42.535717 865.325745,52.844425
	C914.279480,64.666534 961.563477,81.003441 1006.386353,104.021477
	C1052.474609,127.689354 1095.138184,156.325668 1132.292480,192.752167
	C1137.716675,198.070175 1143.660889,202.857788 1149.615723,208.112335
	C1141.582153,218.949844 1134.710449,228.301224 1127.754517,237.589523
	C1099.454102,275.379333 1071.230713,313.227570 1042.746216,350.878174
	C1034.627686,361.609039 1024.568115,370.781982 1011.881348,375.427826
	C990.570374,383.231842 969.267456,381.878632 949.502197,370.288269
	C928.576721,358.017548 908.112366,344.957306 887.503845,332.149811
	C861.259827,315.840118 832.601257,305.550964 802.877563,297.824341
	C760.656738,286.849121 717.539246,284.291077 674.332397,286.568176
	C591.850159,290.915283 517.820862,317.929291 455.832275,373.816833
	C419.537750,406.539093 392.075317,445.929230 371.625732,490.297028
	C350.309540,536.544983 337.449829,585.060730 332.020691,635.609314
	C329.073578,663.048767 327.701233,690.568604 328.346069,718.171814
	C328.423706,721.493408 328.658142,724.811401 329.079590,729.033203
z"/>
<path fill="#cc0000" opacity="2.000000" stroke="none"
	d="
M1439.954834,1354.223633
	C1416.580811,1364.064087 1392.908325,1368.327759 1368.365112,1367.646729
	C1292.631714,1365.545776 1230.386353,1315.107788 1217.669189,1239.360107
	C1205.893311,1169.218384 1242.499756,1106.495483 1300.302368,1076.983643
	C1355.696533,1048.701294 1431.630615,1055.760986 1480.901855,1100.198853
	C1510.394043,1126.797974 1527.997070,1159.410645 1531.475708,1198.745483
	C1537.569946,1267.658936 1501.488037,1325.948853 1443.294434,1352.516846
	C1442.388916,1352.930176 1441.536621,1353.460815 1439.954834,1354.223633
z"/>
<path fill="#cc0000" opacity="2.000000" stroke="none"
	d="
M3265.947998,1120.088745
	C3285.810059,1145.853516 3296.375244,1174.141113 3297.817871,1206.109985
	C3299.334961,1239.741211 3291.679443,1270.783081 3272.801270,1298.562988
	C3245.828613,1338.254761 3207.772949,1360.192017 3160.373779,1366.322510
	C3134.608887,1369.654907 3109.417236,1367.188354 3084.884766,1358.656128
	C3040.171631,1343.105469 3008.299072,1313.534912 2991.916016,1269.145142
	C2971.573975,1214.028320 2979.435059,1162.267334 3016.754639,1116.573364
	C3042.307373,1085.286987 3075.893799,1066.791992 3116.426025,1061.637817
	C3167.971924,1055.083374 3212.972900,1069.195312 3251.399414,1104.073975
	C3256.547852,1108.746948 3260.885986,1114.312988 3265.947998,1120.088745
z"/>
<path fill="#cc0000" opacity="2.000000" stroke="none"
	d="
M2232.513184,1462.506348
	C2282.174316,1461.761719 2331.208496,1459.983765 2380.077393,1462.072876
	C2449.908936,1465.058105 2509.699463,1505.743652 2531.510742,1578.360962
	C2545.277588,1624.195435 2544.332275,1670.241699 2526.121094,1714.873413
	C2502.974854,1771.600464 2459.738770,1803.901611 2399.891846,1814.031128
	C2384.617432,1816.616577 2368.901611,1817.313599 2353.370605,1817.520142
	C2316.739014,1818.007202 2280.096436,1817.676514 2243.458252,1817.676392
	C2239.888428,1817.676392 2236.318604,1817.676270 2232.281250,1817.676270
	C2232.021973,1814.072510 2231.675537,1811.499512 2231.675049,1808.926514
	C2231.651123,1694.681885 2231.657471,1580.437378 2231.666992,1466.192749
	C2231.667236,1465.195190 2231.761719,1464.197754 2232.513184,1462.506348
M2394.357666,1504.286865
	C2389.439209,1503.636597 2384.526123,1502.471558 2379.601318,1502.419312
	C2347.628906,1502.080078 2315.654053,1501.977905 2283.679688,1501.853394
	C2283.163818,1501.851318 2282.645264,1502.549683 2282.085449,1502.951782
	C2282.085449,1593.763428 2282.085449,1684.603882 2282.085449,1775.643188
	C2283.355225,1775.915161 2284.273438,1776.282715 2285.192139,1776.283691
	C2315.183350,1776.317627 2345.216553,1777.327271 2375.156494,1776.090820
	C2423.922363,1774.076904 2463.862793,1747.160034 2480.247070,1698.393555
	C2493.116943,1660.086792 2493.122314,1621.367432 2481.362061,1582.917236
	C2473.670654,1557.771484 2459.035645,1537.041382 2437.096924,1521.917725
	C2424.603027,1513.304932 2410.691162,1508.052612 2394.357666,1504.286865
z"/>
<path fill="#cc0000" opacity="2.000000" stroke="none"
	d="
M2953.924805,1857.546143
	C2945.923828,1833.618774 2954.877930,1812.662354 2971.049072,1801.273682
	C2977.536377,1796.704956 2984.443359,1792.732178 2991.637939,1788.185913
	C2984.852051,1781.371704 2975.522461,1775.860962 2972.974365,1764.605103
	C2970.392090,1753.199097 2971.856934,1742.737427 2977.924805,1733.045654
	C2983.647949,1723.905273 2991.673340,1716.930420 3001.513184,1710.947998
	C2999.758301,1709.335938 2998.350342,1707.675903 2996.614014,1706.501587
	C2956.485840,1679.359497 2953.596436,1620.374146 2986.004150,1587.635620
	C3000.506348,1572.985474 3018.970703,1565.048462 3039.170898,1562.619141
	C3057.648438,1560.397095 3076.379150,1560.130127 3094.535400,1565.843140
	C3099.584961,1567.432007 3104.781738,1569.039917 3109.313721,1571.668579
	C3115.384277,1575.189819 3121.621338,1575.825806 3128.385742,1575.737915
	C3146.657471,1575.499878 3164.934326,1575.656494 3184.330811,1575.656494
	C3184.330811,1582.044556 3184.606934,1587.932617 3184.250977,1593.782104
	C3183.915527,1599.295776 3179.979736,1602.435303 3172.330566,1603.626953
	C3164.225098,1604.889526 3156.072998,1605.851440 3147.259766,1607.036255
	C3148.340576,1610.729614 3149.168457,1613.869995 3150.175049,1616.952026
	C3164.072266,1659.511841 3142.808838,1702.562622 3100.594482,1717.436523
	C3079.073242,1725.019165 3057.155518,1725.980103 3034.835449,1721.954468
	C3031.118896,1721.284058 3027.156494,1718.816162 3023.498291,1722.225098
	C3018.649414,1726.743408 3013.199219,1730.881226 3011.818604,1737.927002
	C3010.074219,1746.829590 3012.923340,1752.297852 3021.141602,1756.782227
	C3031.403320,1762.381958 3042.757812,1763.067749 3053.954346,1763.520996
	C3071.913330,1764.247925 3089.934326,1763.567261 3107.879150,1764.472046
	C3125.924072,1765.381958 3143.355957,1769.280518 3158.743164,1779.640869
	C3168.935303,1786.503052 3175.290771,1796.161011 3177.603271,1807.925171
	C3182.199219,1831.305176 3175.680664,1851.822998 3159.933838,1869.562866
	C3141.624756,1890.189819 3117.759766,1900.676636 3091.385742,1905.158081
	C3060.208008,1910.455566 3029.123535,1908.815430 2999.145752,1897.789795
	C2979.237061,1890.467529 2962.384277,1879.169189 2953.924805,1857.546143
M3097.447998,1801.401001
	C3090.533203,1800.822876 3083.627930,1799.957764 3076.701416,1799.723267
	C3059.164307,1799.129395 3041.503662,1801.138794 3024.134033,1796.992676
	C3022.705322,1796.651611 3020.826172,1796.958374 3019.497559,1797.634521
	C3009.622559,1802.658691 3000.446289,1808.650269 2994.916992,1818.681641
	C2987.313477,1832.476562 2990.018555,1849.333862 3001.979004,1858.052856
	C3008.796387,1863.022339 3016.812012,1867.033447 3024.894043,1869.448364
	C3045.874268,1875.717285 3067.425537,1875.685425 3088.863770,1871.826050
	C3104.089355,1869.085327 3118.552002,1864.179810 3128.863770,1851.621460
	C3140.767822,1837.123901 3143.094482,1813.175415 3116.670898,1805.236816
	C3111.001221,1803.533325 3105.036133,1802.813721 3097.447998,1801.401001
M3096.435791,1604.346924
	C3084.162598,1595.705566 3070.284180,1594.045166 3055.703613,1594.242188
	C3026.352051,1594.639160 3007.231934,1612.054565 3005.954590,1641.172974
	C3004.875488,1665.761230 3016.733154,1684.437988 3040.122070,1690.955933
	C3048.570068,1693.310181 3057.892090,1693.941772 3066.674805,1693.332642
	C3078.283203,1692.527344 3089.320068,1688.957397 3098.598389,1680.981079
	C3118.449463,1663.914673 3119.467285,1622.848267 3096.435791,1604.346924
z"/>
<path fill="#cc0000" opacity="2.000000" stroke="none"
	d="
M351.205841,1515.046631
	C348.392792,1518.844971 346.088867,1522.105103 343.645355,1525.256958
	C338.345612,1532.093140 333.056030,1533.213257 325.500061,1528.777588
	C320.639954,1525.924438 315.951691,1522.752686 311.342651,1519.502319
	C294.260376,1507.455444 274.759308,1502.063110 254.410355,1500.559448
	C231.048645,1498.833374 208.064117,1501.309448 186.180893,1511.002319
	C161.862457,1521.773682 143.267288,1538.648071 130.833954,1561.974487
	C114.919121,1591.832520 110.186813,1623.727051 113.434547,1657.375000
	C116.015244,1684.112305 123.364349,1708.810669 139.081848,1730.659180
	C159.731720,1759.364014 188.188736,1774.440552 223.172623,1777.657593
	C240.171219,1779.220947 256.949341,1777.769043 273.619324,1774.203247
	C291.301300,1770.421021 306.391571,1761.727173 320.140320,1750.353516
	C321.675354,1749.083740 323.058380,1747.624512 324.630890,1746.406738
	C332.300110,1740.468018 336.825378,1740.942505 343.377716,1748.296753
	C348.861481,1754.451904 354.339966,1760.611694 359.929749,1766.891846
	C336.744598,1794.123535 307.859955,1811.044434 273.478210,1817.365967
	C235.731857,1824.306274 198.251328,1822.873901 162.188293,1807.842651
	C125.576500,1792.582764 99.361237,1766.299805 81.924469,1731.066040
	C65.298447,1697.470215 60.344387,1661.475220 62.483707,1624.541016
	C64.537994,1589.075195 75.079338,1556.090332 95.925232,1526.946533
	C122.653503,1489.578613 159.719299,1468.372192 204.325974,1460.475220
	C235.023132,1455.040649 265.886383,1455.550293 296.018829,1464.861450
	C319.917145,1472.246094 340.375610,1485.566772 359.205963,1502.924438
	C356.623108,1506.868408 354.137451,1510.663940 351.205841,1515.046631
z"/>
<path fill="#cc0000" opacity="2.000000" stroke="none"
	d="
M3586.869141,1819.681885
	C3571.537109,1817.172485 3557.621582,1813.489502 3544.469727,1806.573730
	C3520.642090,1794.043945 3503.963379,1774.964966 3494.770752,1750.319702
	C3479.990967,1710.696533 3479.411377,1670.398193 3495.434082,1630.816772
	C3510.740723,1593.005005 3539.289062,1570.762695 3579.305908,1563.756958
	C3607.703125,1558.785645 3635.427734,1560.898560 3661.775635,1574.048706
	C3687.823730,1587.049438 3705.517090,1607.565918 3714.919434,1634.647095
	C3728.922607,1674.980957 3728.862793,1715.646240 3711.887451,1755.103149
	C3697.073486,1789.536011 3669.916504,1809.918579 3633.404297,1817.824951
	C3618.334717,1821.087891 3603.069092,1820.939087 3586.869141,1819.681885
M3575.518311,1602.057739
	C3556.911865,1609.321289 3545.439209,1623.381836 3538.618652,1641.536987
	C3532.469971,1657.902954 3531.054932,1675.135742 3531.167725,1692.420288
	C3531.273682,1708.685181 3532.686035,1724.855225 3538.473877,1740.328491
	C3545.736816,1759.745850 3558.469238,1773.690430 3578.181885,1780.951416
	C3588.104980,1784.606689 3598.375488,1784.379272 3608.677979,1784.339355
	C3636.820312,1784.230469 3658.051514,1770.450684 3668.201904,1744.323364
	C3681.043457,1711.268433 3680.931152,1677.476807 3670.606445,1643.906494
	C3663.255859,1620.006958 3647.581787,1603.360840 3622.259033,1598.864746
	C3607.275146,1596.204224 3591.809326,1595.799927 3575.518311,1602.057739
z"/>
<path fill="#cc0000" opacity="2.000000" stroke="none"
	d="
M1882.784912,1603.259888
	C1898.525879,1623.608398 1905.667603,1646.365601 1908.444214,1670.956421
	C1911.203369,1695.391357 1909.471313,1719.305298 1901.890747,1742.677734
	C1886.043213,1791.538086 1845.791748,1819.138794 1795.204224,1820.394409
	C1775.022949,1820.895264 1755.505493,1818.417480 1736.874268,1810.177368
	C1703.731689,1795.518921 1683.739868,1769.420898 1674.877075,1735.329956
	C1665.749390,1700.220215 1666.436646,1664.841553 1680.454224,1630.741089
	C1695.490601,1594.161743 1722.943481,1571.951294 1761.565308,1564.131226
	C1786.045166,1559.174561 1810.492554,1560.253906 1834.291016,1568.492310
	C1853.608398,1575.179321 1869.663696,1586.601440 1882.784912,1603.259888
M1862.325684,1683.131836
	C1862.214478,1668.398804 1859.781494,1654.096436 1854.472290,1640.311768
	C1847.025635,1620.977783 1834.659302,1606.145264 1814.183228,1600.593262
	C1804.755859,1598.037354 1794.502197,1597.891479 1784.612549,1597.799805
	C1757.558960,1597.548950 1735.538452,1612.189453 1725.703247,1637.403931
	C1712.538330,1671.154541 1712.920898,1705.487793 1723.659790,1739.763794
	C1727.492432,1751.997070 1734.463135,1762.408203 1744.697632,1770.572388
	C1764.095581,1786.046265 1786.257202,1786.657104 1809.078491,1782.451538
	C1815.778076,1781.216919 1822.497314,1778.400757 1828.414062,1774.949341
	C1841.600220,1767.257446 1849.388672,1755.029663 1854.792603,1740.975708
	C1861.743042,1722.900024 1862.806641,1704.122314 1862.325684,1683.131836
z"/>
<path fill="#cc0000" opacity="2.000000" stroke="none"
	d="
M606.227478,1613.996826
	C613.560730,1628.823853 617.842651,1643.714355 618.311218,1659.554565
	C618.543762,1667.416016 618.890381,1675.343384 618.153748,1683.143433
	C617.493286,1690.136108 615.543335,1691.414917 608.416382,1691.918701
	C603.777832,1692.246582 599.103516,1692.111206 594.445190,1692.109253
	C546.886902,1692.089966 499.328583,1692.055420 451.770294,1692.025269
	C448.830200,1692.023438 445.890106,1692.024902 442.152069,1692.024902
	C442.717621,1717.384033 447.292603,1740.618530 463.412384,1760.288940
	C475.953613,1775.592651 492.690399,1782.646851 512.009460,1784.307129
	C537.139709,1786.467163 559.931702,1779.776123 581.150024,1766.457153
	C596.032898,1757.115112 598.133179,1757.748169 608.715088,1771.840088
	C611.086182,1774.997803 613.399658,1778.198730 616.035339,1781.781616
	C606.810608,1793.707031 594.765381,1801.604858 581.722717,1807.073486
	C543.256042,1823.202271 504.049316,1826.659790 464.737274,1809.743408
	C442.572723,1800.205811 426.339233,1783.978027 414.691315,1763.004761
	C401.089447,1738.513428 397.012878,1711.954102 397.261658,1684.357300
	C397.449768,1663.490356 401.210083,1643.482178 410.233124,1624.582397
	C425.541107,1592.517944 450.671387,1572.222290 485.122040,1564.406128
	C507.057129,1559.429443 529.312744,1559.588379 551.031616,1566.773438
	C575.569580,1574.891113 593.573364,1590.792847 606.227478,1613.996826
M465.036102,1662.325684
	C502.597748,1662.325684 540.159363,1662.325684 578.309082,1662.325684
	C578.050964,1658.098755 578.000549,1654.844116 577.632385,1651.625732
	C574.430420,1623.636841 558.817566,1602.953247 533.582275,1597.479248
	C521.596069,1594.879395 508.244537,1595.344849 496.060913,1597.511353
	C464.236420,1603.170654 446.999786,1632.695923 444.207489,1662.325684
	C450.521088,1662.325684 456.788422,1662.325684 465.036102,1662.325684
z"/>
<path fill="#cc0000" opacity="2.000000" stroke="none"
	d="
M1172.401733,1745.338745
	C1186.487549,1772.051025 1208.279053,1783.789673 1237.526855,1784.559937
	C1259.753784,1785.145386 1279.397583,1778.635986 1297.903931,1767.458374
	C1315.967163,1756.548096 1317.222412,1758.328491 1328.588135,1773.236084
	C1330.572510,1775.838867 1332.375366,1778.580200 1334.420532,1781.482544
	C1325.389160,1793.443726 1313.603882,1801.299072 1300.387939,1807.017334
	C1265.642090,1822.051270 1229.968140,1825.561890 1193.605591,1813.724243
	C1163.483276,1803.918091 1141.751831,1783.889038 1129.525024,1754.964233
	C1110.386230,1709.687622 1108.768311,1663.694946 1131.925537,1619.395996
	C1151.340820,1582.255371 1183.719360,1563.498291 1225.597778,1561.739624
	C1237.854980,1561.225098 1250.171631,1561.083740 1262.245239,1564.411743
	C1300.328369,1574.909546 1323.546021,1599.899292 1333.790894,1637.538574
	C1337.571899,1651.429688 1338.267700,1665.662720 1337.674561,1679.980835
	C1337.296387,1689.106812 1334.943359,1691.781738 1325.543457,1691.866577
	C1298.268921,1692.112305 1270.991211,1692.041382 1243.714844,1692.061768
	C1219.432739,1692.079956 1195.150635,1692.053955 1170.868530,1692.047607
	C1167.606323,1692.046875 1164.343994,1692.047607 1160.481201,1692.047607
	C1161.664673,1710.831055 1163.798950,1728.398193 1172.401733,1745.338745
M1232.999878,1662.325684
	C1254.261963,1662.325684 1275.523926,1662.325684 1296.307007,1662.325684
	C1296.307007,1658.316284 1296.577393,1655.297485 1296.261353,1652.341431
	C1294.669312,1637.449829 1289.935791,1623.877441 1279.334839,1612.800171
	C1261.354004,1594.011597 1238.848633,1593.483398 1215.463623,1597.174561
	C1205.836548,1598.694214 1197.113281,1602.735229 1189.489136,1609.010742
	C1172.922852,1622.646362 1165.779053,1640.963257 1162.501221,1662.325684
	C1185.754639,1662.325684 1208.377197,1662.325684 1232.999878,1662.325684
z"/>
<path fill="#cc0000" opacity="2.000000" stroke="none"
	d="
M2776.945801,1606.761963
	C2769.826172,1611.204712 2763.285645,1615.164551 2756.905029,1619.367920
	C2747.187988,1625.768921 2736.390137,1627.160645 2728.951660,1612.509888
	C2727.009033,1608.684082 2724.762451,1605.012817 2722.578125,1601.133301
	C2746.403076,1578.663574 2773.331299,1564.223511 2806.459961,1561.329346
	C2826.892334,1559.544556 2846.083740,1561.352173 2864.487793,1570.396240
	C2885.204102,1580.576538 2898.030029,1597.511353 2903.945068,1619.280640
	C2907.130127,1631.001831 2909.294922,1643.376221 2909.432861,1655.484253
	C2910.021729,1707.117676 2909.687500,1758.761841 2909.662598,1810.401978
	C2909.661621,1812.338745 2909.371094,1814.275146 2909.168213,1816.800659
	C2900.344971,1818.053223 2891.988770,1818.068726 2883.425293,1816.569458
	C2876.721924,1815.395996 2873.688965,1811.550293 2872.413574,1805.501831
	C2870.983887,1798.721802 2869.604004,1791.931274 2868.022705,1784.274780
	C2862.374023,1788.885010 2857.520264,1792.802612 2852.714111,1796.777222
	C2838.586426,1808.460449 2822.468506,1816.209229 2804.479492,1819.219116
	C2785.015625,1822.475586 2765.614990,1822.509399 2746.958008,1814.237915
	C2729.703369,1806.588257 2718.762939,1793.721680 2713.490479,1775.724243
	C2706.705811,1752.562500 2710.367432,1731.472412 2727.030518,1713.751465
	C2737.900146,1702.191650 2752.013184,1695.206177 2766.869385,1689.855347
	C2794.000977,1680.083374 2822.104736,1676.064575 2850.817383,1675.659058
	C2854.784180,1675.603027 2858.752197,1675.651245 2863.850098,1675.651245
	C2864.668457,1655.145996 2866.441650,1634.968018 2855.412354,1616.582886
	C2848.616211,1605.253784 2837.734375,1599.889526 2824.956299,1598.258667
	C2808.376465,1596.142578 2792.515137,1598.623535 2776.945801,1606.761963
M2835.323975,1705.831787
	C2816.849609,1707.962646 2798.410645,1710.360840 2781.162109,1717.874756
	C2773.207764,1721.339966 2765.504639,1725.482544 2760.352539,1732.815063
	C2752.350586,1744.203613 2752.540283,1756.369751 2757.736084,1768.775391
	C2763.321533,1782.110962 2774.662842,1787.084351 2787.874023,1788.209106
	C2816.619629,1790.656616 2840.388184,1779.787598 2860.684082,1759.992310
	C2863.637695,1757.111450 2864.425293,1754.098999 2864.381836,1750.245361
	C2864.238770,1737.586060 2864.364258,1724.923950 2864.297852,1712.263428
	C2864.284424,1709.697998 2863.883301,1707.134521 2863.615479,1704.044189
	C2858.689697,1704.640747 2854.453857,1705.356201 2850.190430,1705.613403
	C2845.874512,1705.873779 2841.531250,1705.680786 2835.323975,1705.831787
z"/>
<path fill="#cc0000" opacity="2.000000" stroke="none"
	d="
M883.687195,1764.000244
	C883.687195,1782.235840 883.687195,1799.471436 883.687195,1817.187866
	C868.511169,1817.187866 854.315918,1817.187866 838.817993,1817.187866
	C838.645691,1813.644165 838.330139,1810.151489 838.327942,1806.658447
	C838.296448,1756.010864 838.410339,1705.362915 838.191162,1654.716309
	C838.159790,1647.486938 837.276367,1640.090454 835.560181,1633.071289
	C830.251648,1611.359009 814.256531,1598.885376 791.875671,1597.646606
	C767.774536,1596.312622 748.042480,1605.769165 730.260559,1621.088745
	C722.438049,1627.827881 719.258972,1635.215576 719.391052,1645.962524
	C720.042175,1698.934448 719.687134,1751.918945 719.687134,1804.898926
	C719.687134,1808.540161 719.687134,1812.181274 719.687134,1816.157593
	C712.238953,1819.166016 704.883118,1817.276245 697.746704,1817.611450
	C690.451599,1817.954102 683.127930,1817.687256 674.368225,1817.687256
	C673.972351,1733.655884 674.266663,1650.053467 674.235413,1565.738159
	C684.971558,1565.738159 694.839722,1565.275391 704.638062,1565.903320
	C711.018433,1566.312134 712.927917,1571.865234 713.791992,1577.346680
	C714.907349,1584.421875 715.739380,1591.541992 716.808289,1599.497437
	C724.247314,1593.198486 730.860046,1587.319092 737.764038,1581.804199
	C760.772888,1563.424683 787.447021,1558.378052 815.775391,1562.453125
	C850.234680,1567.410400 870.603394,1588.925659 879.458313,1621.614990
	C882.198242,1631.729980 883.367188,1642.532715 883.503601,1653.043335
	C883.979004,1689.690186 883.687317,1726.347046 883.687195,1764.000244
z"/>
<path fill="#cc0000" opacity="2.000000" stroke="none"
	d="
M3432.272461,1619.982422
	C3434.139893,1632.210815 3437.310547,1643.618164 3437.432617,1655.058105
	C3437.984131,1706.695190 3437.677490,1758.341431 3437.658203,1809.984375
	C3437.657471,1811.954834 3437.431152,1813.925171 3437.219727,1817.367065
	C3422.368652,1817.960693 3407.644531,1817.668457 3391.654785,1817.488647
	C3391.654785,1813.191406 3391.654785,1809.649780 3391.654785,1806.108276
	C3391.654785,1754.798462 3391.858398,1703.487183 3391.452148,1652.180542
	C3391.384766,1643.721802 3389.722656,1634.906616 3386.924805,1626.911377
	C3380.077148,1607.341309 3364.749756,1598.890381 3344.768066,1597.675659
	C3325.701416,1596.516724 3308.780518,1602.403442 3293.378662,1613.293579
	C3293.107178,1613.485474 3292.865967,1613.719604 3292.598877,1613.918457
	C3272.339600,1629.022339 3272.339600,1629.022095 3272.339600,1654.035034
	C3272.339600,1704.678467 3272.339600,1755.321777 3272.339600,1805.965210
	C3272.339600,1809.523560 3272.339355,1813.081787 3272.339355,1817.147949
	C3257.062744,1817.147949 3242.926758,1817.147949 3228.222168,1817.147949
	C3228.222168,1733.189575 3228.222168,1649.755249 3228.222168,1565.651733
	C3237.963379,1565.651733 3247.496094,1565.272217 3256.979736,1565.789795
	C3262.961670,1566.116333 3266.586670,1570.900879 3267.614990,1578.308472
	C3268.550781,1585.048096 3269.188721,1591.828979 3270.010742,1599.054443
	C3279.019531,1591.905884 3287.072754,1585.063843 3295.588135,1578.855347
	C3311.626465,1567.162231 3329.603516,1561.669800 3349.607666,1561.484741
	C3366.584961,1561.327637 3382.694824,1563.407349 3397.542725,1572.182007
	C3415.770752,1582.953979 3426.092285,1599.486328 3432.272461,1619.982422
z"/>
<path fill="#cc0000" opacity="2.000000" stroke="none"
	d="
M2090.350830,1472.084473
	C2090.351074,1475.676025 2090.441406,1478.345459 2090.333008,1481.006714
	C2089.992920,1489.344238 2088.045166,1491.296021 2079.439209,1491.657227
	C2072.127441,1491.964233 2064.755859,1491.594482 2057.500732,1492.366943
	C2036.169678,1494.638062 2023.438843,1505.903198 2018.720703,1526.489990
	C2017.467773,1531.956787 2016.697754,1537.612427 2016.453735,1543.213867
	C2016.080200,1551.787720 2016.355469,1560.389771 2016.355469,1569.924072
	C2040.974731,1569.924072 2064.787354,1569.924072 2089.128906,1569.924072
	C2089.128906,1581.353516 2089.128906,1591.817017 2089.128906,1603.407227
	C2065.571533,1603.407227 2042.442505,1603.407227 2018.553711,1603.407227
	C2018.553711,1675.041626 2018.553711,1745.559326 2018.553711,1817.377808
	C2010.316162,1817.485474 2002.816284,1817.620728 1995.315796,1817.671143
	C1988.046265,1817.719971 1980.776123,1817.681641 1972.359131,1817.681641
	C1972.359131,1746.167358 1972.359131,1675.411499 1972.359131,1604.248169
	C1964.072876,1603.310425 1956.880737,1602.517334 1949.693970,1601.678589
	C1936.504517,1600.139648 1932.406250,1595.579102 1932.322144,1582.377319
	C1932.299072,1578.754761 1932.318481,1575.131958 1932.318481,1570.398315
	C1945.672607,1570.398315 1958.469727,1570.398315 1972.315186,1570.398315
	C1972.315186,1560.770752 1972.096313,1552.213745 1972.363403,1543.671875
	C1972.833374,1528.646729 1975.481812,1514.115479 1981.994507,1500.339844
	C1992.910278,1477.250854 2011.537476,1463.946045 2035.778809,1458.534912
	C2053.771484,1454.518433 2071.933105,1454.990601 2090.350098,1461.348267
	C2090.350098,1464.679810 2090.350098,1467.919067 2090.350830,1472.084473
z"/>
<path fill="#cc0000" opacity="2.000000" stroke="none"
	d="
M3791.130371,1770.574829
	C3809.737793,1783.733643 3829.478271,1790.188843 3851.687012,1787.639404
	C3861.343018,1786.531006 3870.522705,1784.041260 3878.539551,1778.146240
	C3890.760986,1769.159302 3895.033691,1756.716797 3893.378906,1742.268921
	C3892.330811,1733.119019 3886.427490,1726.139160 3878.493164,1722.248901
	C3867.233398,1716.728394 3855.371582,1712.395508 3843.635742,1707.896851
	C3829.088135,1702.320435 3813.949219,1698.078369 3799.865234,1691.538086
	C3749.647705,1668.218140 3755.852539,1606.420410 3789.435791,1581.052612
	C3806.168701,1568.412964 3824.891357,1562.212402 3845.839600,1561.551514
	C3867.785889,1560.859253 3889.069092,1562.964844 3908.475342,1574.084595
	C3916.722656,1578.810181 3924.381104,1584.563354 3932.843994,1590.207764
	C3928.665527,1597.010742 3925.480469,1602.803345 3921.702637,1608.179565
	C3917.744873,1613.812500 3913.470703,1614.922607 3906.950684,1612.050659
	C3899.675049,1608.845947 3892.774170,1604.779541 3885.465332,1601.663452
	C3869.037842,1594.659790 3851.968262,1593.357056 3834.840576,1598.329712
	C3821.481445,1602.208374 3811.070068,1609.761475 3807.390381,1624.375366
	C3804.646484,1635.273682 3807.931885,1643.770630 3816.165283,1650.959473
	C3824.923096,1658.606567 3835.670898,1662.151733 3846.291748,1665.906982
	C3861.610352,1671.323120 3877.204834,1675.997314 3892.361084,1681.822266
	C3908.171387,1687.898438 3922.267090,1696.936279 3929.962891,1712.739502
	C3941.612061,1736.661133 3937.812988,1760.135132 3924.611816,1782.005615
	C3910.542480,1805.314087 3887.896729,1815.838745 3861.861084,1819.623413
	C3841.661133,1822.559692 3821.507080,1821.711060 3801.857178,1815.683960
	C3788.119141,1811.470093 3775.250488,1805.332153 3763.830811,1796.456299
	C3761.531982,1794.669312 3759.428467,1792.630737 3756.886719,1790.403076
	C3759.822754,1785.359863 3762.797852,1780.963989 3765.055664,1776.226196
	C3769.996094,1765.857910 3780.717041,1762.000000 3791.130371,1770.574829
z"/>
<path fill="#cc0000" opacity="2.000000" stroke="none"
	d="
M4013.917969,1791.763672
	C4008.106201,1780.492798 4006.439453,1768.982910 4006.390869,1757.339478
	C4006.192627,1709.695312 4006.306641,1662.049927 4006.305664,1614.404907
	C4006.305420,1611.147339 4006.305664,1607.889771 4006.305664,1603.686890
	C3997.377197,1603.686890 3989.146729,1603.783081 3980.919434,1603.662720
	C3970.324707,1603.507812 3966.749512,1599.951294 3966.340576,1589.234253
	C3966.176270,1584.928467 3966.313721,1580.611328 3966.313721,1575.092651
	C3980.204102,1573.159668 3993.817627,1571.265015 4007.958496,1569.297119
	C4010.016602,1554.015869 4012.064941,1538.987061 4014.057129,1523.950806
	C4015.360596,1514.111938 4016.488770,1504.249023 4017.868652,1494.421265
	C4018.947266,1486.740112 4021.933594,1483.968140 4029.657471,1483.701172
	C4036.608398,1483.461060 4043.574219,1483.650635 4051.388428,1483.650635
	C4051.388428,1512.414062 4051.388428,1540.587646 4051.388428,1569.803955
	C4075.671143,1569.803955 4099.126465,1569.803955 4123.125977,1569.803955
	C4123.125977,1581.344482 4123.125977,1591.842407 4123.125977,1603.350952
	C4099.621094,1603.350952 4076.163330,1603.350952 4051.687500,1603.350952
	C4051.687500,1607.214355 4051.687500,1610.097656 4051.687500,1612.980957
	C4051.687500,1657.960449 4051.673340,1702.939941 4051.714111,1747.919434
	C4051.717285,1751.570435 4052.121338,1755.219849 4052.296875,1758.872070
	C4053.291504,1779.576172 4072.616211,1786.806641 4085.995361,1782.664185
	C4092.237305,1780.731689 4098.208008,1777.654907 4103.961426,1774.480469
	C4110.993652,1770.600220 4113.452148,1770.748169 4117.839355,1777.591431
	C4121.950684,1784.004028 4125.677734,1790.662964 4129.739258,1797.490967
	C4123.163086,1805.723633 4114.263184,1810.217773 4105.151367,1813.967041
	C4088.613037,1820.771606 4071.337402,1822.867676 4053.607910,1819.838745
	C4036.230957,1816.869995 4022.721924,1808.225830 4013.917969,1791.763672
z"/>
<path fill="#cc0000" opacity="2.000000" stroke="none"
	d="
M1046.390137,1818.713379
	C1034.179321,1821.447876 1022.742126,1821.691772 1011.164246,1819.977295
	C985.431274,1816.166870 967.929688,1797.845459 964.364136,1770.410767
	C963.808899,1766.138794 963.687256,1761.786255 963.683105,1757.470703
	C963.637207,1709.843018 963.654297,1662.215210 963.654175,1614.587524
	C963.654175,1611.323242 963.654053,1608.058960 963.654053,1603.672607
	C955.058716,1603.672607 947.133057,1603.142456 939.306824,1603.798706
	C928.008911,1604.746216 922.414795,1598.845947 923.589417,1587.678955
	C924.001648,1583.760132 923.655151,1579.761475 923.655151,1574.977417
	C930.959900,1573.994751 937.759888,1573.078979 944.560181,1572.165527
	C951.117737,1571.284668 957.675598,1570.406128 964.897888,1569.437500
	C966.628540,1556.687134 968.406677,1543.989502 970.061584,1531.275757
	C971.557129,1519.786377 972.804016,1508.263794 974.372009,1496.784790
	C975.834229,1486.080322 978.539001,1483.790527 989.218140,1483.675049
	C994.545959,1483.617432 999.875305,1483.678955 1005.203674,1483.721558
	C1005.833618,1483.726562 1006.461853,1483.953247 1007.979858,1484.252319
	C1007.979858,1512.203125 1007.979858,1540.338501 1007.979858,1569.865479
	C1020.631714,1570.144165 1032.473511,1569.958496 1044.303345,1569.993652
	C1055.902832,1570.028076 1067.502686,1570.001099 1079.718750,1570.001099
	C1079.718750,1581.349487 1079.718750,1592.087769 1079.718750,1603.478516
	C1056.094360,1603.478516 1032.871704,1603.478516 1009.120178,1603.478516
	C1008.818054,1606.271240 1008.371826,1608.483154 1008.369873,1610.695312
	C1008.329346,1656.990845 1008.278625,1703.286499 1008.422302,1749.581543
	C1008.438599,1754.830200 1009.099792,1760.197144 1010.332825,1765.298584
	C1013.716003,1779.295898 1029.401733,1787.287109 1044.499023,1782.425903
	C1050.410767,1780.522339 1055.889526,1777.161743 1061.404541,1774.168091
	C1067.872925,1770.657104 1069.782104,1770.652588 1073.834473,1776.647583
	C1078.447388,1783.471680 1082.491455,1790.680176 1086.969971,1798.028687
	C1075.186157,1808.845825 1062.115356,1815.413574 1046.390137,1818.713379
z"/>
<path fill="#cc0000" opacity="2.000000" stroke="none"
	d="
M4446.003418,1812.111816
	C4419.898926,1821.303345 4393.918945,1823.709229 4367.874512,1816.955078
	C4332.078613,1807.672119 4308.280762,1784.225830 4295.730469,1749.936401
	C4280.627930,1708.675659 4280.773438,1666.850342 4298.346191,1626.586426
	C4316.667969,1584.606323 4350.495117,1563.277588 4396.245605,1561.835205
	C4408.437988,1561.450806 4420.895020,1562.191040 4432.887695,1564.332886
	C4452.618164,1567.856567 4469.580078,1577.621582 4484.149902,1591.410156
	C4485.065918,1592.277588 4485.712891,1593.430420 4486.783691,1594.845337
	C4482.617676,1600.631592 4478.773926,1606.407837 4474.471191,1611.819824
	C4470.341309,1617.015015 4465.420898,1617.927490 4459.443848,1614.843750
	C4455.616699,1612.868896 4452.047363,1610.390259 4448.376953,1608.114380
	C4436.225098,1600.579224 4422.738281,1597.156494 4408.705566,1596.445312
	C4378.420410,1594.910522 4351.085449,1612.132935 4340.781738,1640.617310
	C4328.393066,1674.864258 4328.355957,1709.587158 4341.947754,1743.668701
	C4350.397461,1764.857422 4366.128906,1778.952881 4388.606445,1783.143677
	C4410.802734,1787.281982 4432.385254,1784.526367 4451.182617,1770.255249
	C4454.358398,1767.844238 4457.389648,1765.217041 4460.710449,1763.028198
	C4467.716797,1758.410034 4472.697266,1759.217896 4478.062012,1765.574341
	C4479.774414,1767.603149 4481.443848,1769.673340 4483.037598,1771.795898
	C4485.228516,1774.713257 4487.329590,1777.698608 4489.691895,1780.962769
	C4478.210449,1795.281006 4464.157715,1805.879395 4446.003418,1812.111816
z"/>
<path fill="#cc0000" opacity="2.000000" stroke="none"
	d="
M1438.353638,1702.000244
	C1438.353638,1740.872070 1438.353638,1778.743774 1438.353638,1817.143188
	C1422.767212,1817.143188 1408.286377,1817.143188 1393.060547,1817.143188
	C1393.060547,1733.363159 1393.060547,1649.980713 1393.060547,1565.726562
	C1403.228760,1565.726562 1413.365356,1565.603271 1423.496460,1565.781006
	C1428.247192,1565.864136 1430.492432,1569.456665 1431.622925,1573.411621
	C1432.704590,1577.196167 1433.306641,1581.174927 1433.626221,1585.108521
	C1434.402954,1594.665405 1434.893188,1604.245605 1435.653076,1616.254883
	C1439.142944,1610.553711 1441.345947,1606.824707 1443.673584,1603.175171
	C1453.275146,1588.119873 1464.561401,1574.710693 1481.276855,1567.190430
	C1502.883911,1557.469604 1524.258423,1557.799927 1546.490479,1570.095337
	C1544.528076,1581.091309 1542.904419,1592.423218 1540.364746,1603.545776
	C1538.935059,1609.807373 1534.400879,1611.743042 1526.935425,1609.309692
	C1518.897461,1606.689819 1510.830200,1605.806152 1502.459106,1605.598999
	C1481.363403,1605.077026 1465.202271,1613.989014 1453.448730,1630.989014
	C1448.557739,1638.063232 1444.451660,1645.750610 1440.678711,1653.495361
	C1439.016846,1656.906494 1438.541626,1661.143677 1438.453247,1665.027100
	C1438.180420,1677.012695 1438.353638,1689.008545 1438.353638,1702.000244
z"/>
<path fill="#cc0000" opacity="2.000000" stroke="none"
	d="
M2647.699219,1787.978027
	C2647.699219,1797.940918 2647.699219,1806.908813 2647.699219,1816.113892
	C2640.183350,1819.183960 2632.826660,1817.280762 2625.684082,1817.616455
	C2618.397461,1817.958862 2611.082520,1817.692139 2603.047607,1817.692139
	C2603.047607,1733.730103 2603.047607,1650.269287 2603.047607,1565.946533
	C2617.452637,1565.946533 2632.162598,1565.946533 2647.699219,1565.946533
	C2647.699219,1639.831787 2647.699219,1713.407471 2647.699219,1787.978027
z"/>
<path fill="#cc0000" opacity="2.000000" stroke="none"
	d="
M4226.617676,1809.618408
	C4226.220703,1812.768921 4225.958984,1814.955933 4225.671387,1817.358887
	C4211.108887,1817.358887 4197.201660,1817.358887 4183.314453,1817.358887
	C4180.907227,1809.215820 4179.870605,1621.905762 4181.955566,1565.790771
	C4196.506348,1564.744141 4211.156250,1565.296875 4226.752930,1565.557739
	C4226.752930,1647.044556 4226.752930,1727.849731 4226.617676,1809.618408
z"/>
<path fill="#cc0000" opacity="2.000000" stroke="none"
	d="
M4230.403320,1467.956055
	C4242.677246,1486.048950 4235.463867,1507.196411 4219.081055,1515.158691
	C4208.302734,1520.397339 4197.172852,1520.536133 4187.020508,1513.349609
	C4176.875977,1506.168213 4171.155762,1496.076538 4172.781250,1483.585571
	C4174.530273,1470.143433 4182.072266,1460.238770 4195.454102,1456.117676
	C4209.382812,1451.828125 4220.690430,1456.676758 4230.403320,1467.956055
z"/>
<path fill="#cc0000" opacity="2.000000" stroke="none"
	d="
M2655.731201,1497.020996
	C2648.711426,1511.951904 2638.166016,1520.022339 2621.766357,1518.347412
	C2609.007080,1517.044067 2600.243652,1509.889160 2595.637939,1498.335449
	C2591.153320,1487.085693 2592.913086,1476.205811 2600.784180,1466.707520
	C2610.428467,1455.069336 2625.519287,1450.978516 2639.966797,1458.550537
	C2652.377197,1465.054810 2661.582764,1481.907715 2655.731201,1497.020996
z"/>
<path fill="#000000" opacity="0" stroke="none"
	d="
M4165.883789,1067.958984
	C4118.281738,1097.088989 4067.302246,1113.683105 4012.457520,1118.276245
	C3998.910645,1119.410645 3985.291992,1120.203369 3971.703613,1120.245117
	C3906.392822,1120.445801 3841.081055,1120.335327 3775.769775,1120.335327
	C3772.145996,1120.335327 3768.522217,1120.335327 3764.283203,1120.335327
	C3764.283203,841.134827 3764.283203,562.393555 3764.283203,282.762421
	C3766.936035,282.625854 3769.809814,282.349792 3772.683594,282.348816
	C3841.993652,282.324982 3911.327881,281.176727 3980.606689,282.648102
	C4053.094482,284.187653 4120.899414,302.973785 4180.893066,345.447113
	C4222.674805,375.027039 4254.577637,413.179047 4278.334473,458.321106
	C4303.978516,507.050232 4318.782227,559.120117 4326.334473,613.482422
	C4331.655273,651.784729 4332.925293,690.302795 4331.475586,728.809814
	C4329.052246,793.205200 4317.962891,855.946289 4292.408203,915.642090
	C4265.393066,978.750977 4224.722656,1030.405762 4165.883789,1067.958984
z"/>
<path fill="#000000" opacity="0" stroke="none"
	d="
M2588.333252,908.265991
	C2574.856689,940.739502 2558.201416,970.435181 2536.579346,997.368835
	C2500.231934,1042.645874 2454.347168,1074.277710 2400.061035,1094.044556
	C2362.046631,1107.886597 2322.783691,1115.408936 2282.289062,1116.367798
	C2271.679199,1116.618896 2261.058838,1117.870850 2250.475586,1117.563599
	C2190.840820,1115.832397 2133.105713,1105.653442 2079.260498,1078.376587
	C2022.694580,1049.721436 1979.490234,1007.221680 1948.366089,952.273438
	C1921.870117,905.496033 1905.745972,855.085938 1897.935913,802.067261
	C1894.899292,781.452637 1893.074951,760.604675 1891.838501,739.795227
	C1890.597412,718.907166 1889.784180,697.898682 1890.541260,677.006714
	C1892.080200,634.536011 1897.288696,592.466064 1908.301880,551.272400
	C1918.220215,514.174072 1932.162842,478.730896 1951.925049,445.719879
	C1982.519043,394.614410 2023.576904,354.474487 2076.636475,326.885315
	C2115.987793,306.424103 2157.780029,294.682770 2201.776855,289.401245
	C2229.306641,286.096466 2256.876221,285.184662 2284.352051,286.610077
	C2337.838867,289.384949 2389.386719,300.785278 2437.344971,325.886444
	C2480.799805,348.630341 2517.195068,379.368225 2546.021973,419.161987
	C2577.501465,462.617523 2597.469482,511.105133 2609.839355,562.975098
	C2616.074463,589.119690 2620.627686,615.562805 2622.309814,642.426514
	C2623.471436,660.977600 2625.353271,679.551758 2625.220947,698.103638
	C2624.709473,769.911011 2616.574463,840.490784 2588.333252,908.265991
z"/>
<path fill="#010101" opacity="0" stroke="none"
	d="
M2395.204346,1504.397583
	C2410.691162,1508.052612 2424.603027,1513.304932 2437.096924,1521.917725
	C2459.035645,1537.041382 2473.670654,1557.771484 2481.362061,1582.917236
	C2493.122314,1621.367432 2493.116943,1660.086792 2480.247070,1698.393555
	C2463.862793,1747.160034 2423.922363,1774.076904 2375.156494,1776.090820
	C2345.216553,1777.327271 2315.183350,1776.317627 2285.192139,1776.283691
	C2284.273438,1776.282715 2283.355225,1775.915161 2282.085449,1775.643188
	C2282.085449,1684.603882 2282.085449,1593.763428 2282.085449,1502.951782
	C2282.645264,1502.549683 2283.163818,1501.851318 2283.679688,1501.853394
	C2315.654053,1501.977905 2347.628906,1502.080078 2379.601318,1502.419312
	C2384.526123,1502.471558 2389.439209,1503.636597 2395.204346,1504.397583
z"/>
<path fill="#030303" opacity="0" stroke="none"
	d="
M3098.327637,1801.520996
	C3105.036133,1802.813721 3111.001221,1803.533325 3116.670898,1805.236816
	C3143.094482,1813.175415 3140.767822,1837.123901 3128.863770,1851.621460
	C3118.552002,1864.179810 3104.089355,1869.085327 3088.863770,1871.826050
	C3067.425537,1875.685425 3045.874268,1875.717285 3024.894043,1869.448364
	C3016.812012,1867.033447 3008.796387,1863.022339 3001.979004,1858.052856
	C2990.018555,1849.333862 2987.313477,1832.476562 2994.916992,1818.681641
	C3000.446289,1808.650269 3009.622559,1802.658691 3019.497559,1797.634521
	C3020.826172,1796.958374 3022.705322,1796.651611 3024.134033,1796.992676
	C3041.503662,1801.138794 3059.164307,1799.129395 3076.701416,1799.723267
	C3083.627930,1799.957764 3090.533203,1800.822876 3098.327637,1801.520996
z"/>
<path fill="#030303" opacity="0" stroke="none"
	d="
M3097.020508,1604.786011
	C3119.467285,1622.848267 3118.449463,1663.914673 3098.598389,1680.981079
	C3089.320068,1688.957397 3078.283203,1692.527344 3066.674805,1693.332642
	C3057.892090,1693.941772 3048.570068,1693.310181 3040.122070,1690.955933
	C3016.733154,1684.437988 3004.875488,1665.761230 3005.954590,1641.172974
	C3007.231934,1612.054565 3026.352051,1594.639160 3055.703613,1594.242188
	C3070.284180,1594.045166 3084.162598,1595.705566 3097.020508,1604.786011
z"/>
<path fill="#020202" opacity="0" stroke="none"
	d="
M3576.281006,1601.841797
	C3591.809326,1595.799927 3607.275146,1596.204224 3622.259033,1598.864746
	C3647.581787,1603.360840 3663.255859,1620.006958 3670.606445,1643.906494
	C3680.931152,1677.476807 3681.043457,1711.268433 3668.201904,1744.323364
	C3658.051514,1770.450684 3636.820312,1784.230469 3608.677979,1784.339355
	C3598.375488,1784.379272 3588.104980,1784.606689 3578.181885,1780.951416
	C3558.469238,1773.690430 3545.736816,1759.745850 3538.473877,1740.328491
	C3532.686035,1724.855225 3531.273682,1708.685181 3531.167725,1692.420288
	C3531.054932,1675.135742 3532.469971,1657.902954 3538.618652,1641.536987
	C3545.439209,1623.381836 3556.911865,1609.321289 3576.281006,1601.841797
z"/>
<path fill="#020202" opacity="0" stroke="none"
	d="
M1862.325928,1684.112305
	C1862.806641,1704.122314 1861.743042,1722.900024 1854.792603,1740.975708
	C1849.388672,1755.029663 1841.600220,1767.257446 1828.414062,1774.949341
	C1822.497314,1778.400757 1815.778076,1781.216919 1809.078491,1782.451538
	C1786.257202,1786.657104 1764.095581,1786.046265 1744.697632,1770.572388
	C1734.463135,1762.408203 1727.492432,1751.997070 1723.659790,1739.763794
	C1712.920898,1705.487793 1712.538330,1671.154541 1725.703247,1637.403931
	C1735.538452,1612.189453 1757.558960,1597.548950 1784.612549,1597.799805
	C1794.502197,1597.891479 1804.755859,1598.037354 1814.183228,1600.593262
	C1834.659302,1606.145264 1847.025635,1620.977783 1854.472290,1640.311768
	C1859.781494,1654.096436 1862.214478,1668.398804 1862.325928,1684.112305
z"/>
<path fill="#020202" opacity="0" stroke="none"
	d="
M464.045929,1662.325684
	C456.788422,1662.325684 450.521088,1662.325684 444.207489,1662.325684
	C446.999786,1632.695923 464.236420,1603.170654 496.060913,1597.511353
	C508.244537,1595.344849 521.596069,1594.879395 533.582275,1597.479248
	C558.817566,1602.953247 574.430420,1623.636841 577.632385,1651.625732
	C578.000549,1654.844116 578.050964,1658.098755 578.309082,1662.325684
	C540.159363,1662.325684 502.597748,1662.325684 464.045929,1662.325684
z"/>
<path fill="#020202" opacity="0" stroke="none"
	d="
M1231.999756,1662.325684
	C1208.377197,1662.325684 1185.754639,1662.325684 1162.501221,1662.325684
	C1165.779053,1640.963257 1172.922852,1622.646362 1189.489136,1609.010742
	C1197.113281,1602.735229 1205.836548,1598.694214 1215.463623,1597.174561
	C1238.848633,1593.483398 1261.354004,1594.011597 1279.334839,1612.800171
	C1289.935791,1623.877441 1294.669312,1637.449829 1296.261353,1652.341431
	C1296.577393,1655.297485 1296.307007,1658.316284 1296.307007,1662.325684
	C1275.523926,1662.325684 1254.261963,1662.325684 1231.999756,1662.325684
z"/>
<path fill="#030303" opacity="0" stroke="none"
	d="
M2836.261963,1705.759033
	C2841.531250,1705.680786 2845.874512,1705.873779 2850.190430,1705.613403
	C2854.453857,1705.356201 2858.689697,1704.640747 2863.615479,1704.044189
	C2863.883301,1707.134521 2864.284424,1709.697998 2864.297852,1712.263428
	C2864.364258,1724.923950 2864.238770,1737.586060 2864.381836,1750.245361
	C2864.425293,1754.098999 2863.637695,1757.111450 2860.684082,1759.992310
	C2840.388184,1779.787598 2816.619629,1790.656616 2787.874023,1788.209106
	C2774.662842,1787.084351 2763.321533,1782.110962 2757.736084,1768.775391
	C2752.540283,1756.369751 2752.350586,1744.203613 2760.352539,1732.815063
	C2765.504639,1725.482544 2773.207764,1721.339966 2781.162109,1717.874756
	C2798.410645,1710.360840 2816.849609,1707.962646 2836.261963,1705.759033
z"/>
</svg>
