<?xml version="1.0" encoding="utf-8" ?>
<svg xmlns="http://www.w3.org/2000/svg" viewBox="0 0 24 24" fill="currentColor" stroke="currentColor"> <g id="SVGRepo_bgCarrier" stroke-width="0"/> <g id="SVGRepo_tracerCarrier" stroke-linecap="round" stroke-linejoin="round"/> <g id="SVGRepo_iconCarrier"> <path d="M7.49 13.383A3.812 3.812 0 0 1 6.75 11c0-2.07 1.68-3.75 3.75-3.75S14.25 8.93 14.25 11c0 .828-.267 1.593-.72 2.215M8.25 13.5h.008v.008H8.25V13.5zm7.5 0h.008v.008h-.008V13.5z"/> <path fill-rule="evenodd" d="M6 3.75A2.25 2.25 0 0 0 3.75 6v12A2.25 2.25 0 0 0 6 20.25h12A2.25 2.25 0 0 0 20.25 18V6A2.25 2.25 0 0 0 18 3.75H6zM2.25 6A3.75 3.75 0 0 1 6 2.25h12A3.75 3.75 0 0 1 21.75 6v12A3.75 3.75 0 0 1 18 21.75H6A3.75 3.75 0 0 1 2.25 18V6z" clip-rule="evenodd"/> </g> </svg>
