<svg version="1.1" id="Layer_1" xmlns="http://www.w3.org/2000/svg" x="0" y="0" viewBox="0 0 64 64" style="enable-background:new 0 0 64 64" xml:space="preserve"><style>.st12{fill:#fff}.st17{fill:none;stroke:#000;stroke-width:2;stroke-linecap:round;stroke-linejoin:round;stroke-miterlimit:10}.st18{opacity:.3}</style><g id="Vector"><path d="M57.62 40.94v10c-.23.05-.47.07-.72.07H8.26a3.8 3.8 0 0 1-2.17-.68v-8.78a3.8 3.8 0 0 1 2.17-.68h48.63c.26 0 .5.03.73.07z" style="fill:#47c8f5"/><path d="M19.54 36.96v2.69c0 .43-.06.84-.16 1.22H8.26c-.8 0-1.55.25-2.17.68v-9.34h8.72c2.6.01 4.73 2.13 4.73 4.75z" style="fill:#ffc613"/><path style="fill:#c52026" d="M46.59 12.65v8.69h-9.28v9.28h-8.69v-9.28h-9.28v-8.69h9.28V3.38h8.69v9.27z"/></g><g id="Line"><path class="st17" d="M57.62 40.94v10c-.23.05-.47.07-.72.07H8.26a3.8 3.8 0 0 1-2.17-.68v-8.78a3.8 3.8 0 0 1 2.17-.68h48.63c.26 0 .5.03.73.07z"/><path class="st17" d="M19.54 36.96v2.69c0 .43-.06.84-.16 1.22H8.26c-.8 0-1.55.25-2.17.68v-9.34h8.72c2.6.01 4.73 2.13 4.73 4.75zM5.65 22.88V58.6M57.62 34.45V58.6M46.59 12.65v8.69h-9.28v9.28h-8.69v-9.28h-9.28v-8.69h9.28V3.38h8.69v9.27z"/></g><g class="st18" id="shadow"><path d="M57.62 50.95v-10c-.23-.05-.47-.07-.72-.07H39.2v10.14h17.7c.25-.01.49-.03.72-.07zM39.19 12.65h7.4v8.69h-7.4z"/></g><g class="st18" id="Highligth"><path class="st12" d="M4.81 50.95v-10c.23-.05.47-.07.72-.07h17.7v10.14H5.53a5.49 5.49 0 0 1-.72-.07zM15.84 12.65h9.56v8.69h-9.56z"/></g></svg>
